<?xml version="1.0" encoding="utf-8"?>
<!-- Generator: Adobe Illustrator 24.1.3, SVG Export Plug-In . SVG Version: 6.00 Build 0)  -->
<svg version="1.1" id="Layer_1" xmlns="http://www.w3.org/2000/svg" xmlns:xlink="http://www.w3.org/1999/xlink" x="0px" y="0px"
	 viewBox="0 0 300 300" style="enable-background:new 0 0 300 300;" xml:space="preserve">
<style type="text/css">
	.st0{fill:#FFFFFF;}
	.st1{fill:#E7E4DE;}
	.st2{fill:#8E8DBE;}
	.st3{fill:#6B6B91;}
	.st4{fill:#DDDCDB;}
	.st5{fill:#FBB040;}
	.st6{fill:#CF9234;}
	.st7{fill:#2B3990;}
</style>
<g>
	<g>
		<path class="st0" d="M196.3,237.8C196.2,237.8,196.2,237.8,196.3,237.8C196.3,237.8,196.3,237.9,196.3,237.8z"/>
		<path class="st0" d="M174.3,238.3C174.3,238.3,174.3,238.3,174.3,238.3C174.3,238.3,174.3,238.3,174.3,238.3
			c-0.1,0.1-0.2,0.1-0.2,0.1C174.1,238.4,174.2,238.4,174.3,238.3C174.2,238.4,174.2,238.3,174.3,238.3z"/>
	</g>
	<g>
		<path class="st0" d="M41.1,263.9C41.1,263.9,41.1,263.9,41.1,263.9C41.1,263.9,41.1,263.9,41.1,263.9
			C41.1,263.9,41.1,263.9,41.1,263.9z"/>
		<g>
			<path class="st0" d="M182.4,250C182.4,250,182.4,249.9,182.4,250C182.4,250,182.4,250,182.4,250C182.4,250,182.4,250.1,182.4,250
				C182.4,250,182.4,250,182.4,250z"/>
			<path class="st0" d="M265.7,274c-0.1-1-0.3-1.9-0.4-2.9c-0.1-1-0.3-2-0.6-3c-0.2-0.6-0.5-1.2-0.7-1.8c0,0,0-0.1,0-0.1
				c0.2-0.8,0-1.5-0.3-2.1c0-0.4,0-0.7-0.1-1.1c0-0.1-0.1-0.2-0.1-0.4c0-0.6-0.1-1.2-0.2-1.7c-0.3-1.5-0.7-3-1.3-4.4
				c-0.6-1.4-1.4-2.8-2.2-4.1c-0.8-1.3-1.7-2.6-2.8-3.6c-0.2-0.2-0.5-0.4-0.7-0.6c0,0,0,0-0.1-0.1c-0.2-0.2-0.4-0.4-0.6-0.6
				c-0.1-0.2-0.6-0.8-0.3-0.3c-0.1-0.1-0.1-0.2-0.2-0.4c0,0-0.1-0.2-0.1-0.3c0-0.1,0-0.1,0-0.1c0-0.2-0.1-0.4-0.1-0.6
				c0-0.3-0.1-0.6-0.2-0.9c-0.1-0.3-0.2-0.6-0.3-0.9c0-0.1-0.1-0.3-0.1-0.4c0-0.1,0-0.2,0-0.2c0,0,0-0.1,0.1-0.2
				c0-0.1,0.1-0.2,0.1-0.2c0.5-1.2,0.8-2.3,0.6-3.7c0-0.2-0.1-0.4-0.1-0.6c0,0,0,0,0-0.1c0-0.1,0-0.4,0-0.6c0-0.5-0.1-1.1-0.2-1.6
				c0,0,0,0,0-0.1c0-0.1,0-0.3,0-0.4c0-1.7-0.1-3.4-0.4-5.1c0-0.1-0.1-0.6-0.1-0.6c-0.1-0.4-0.1-0.9-0.2-1.3
				c-0.1-0.7-0.2-1.4-0.4-2.1c-0.4-1.5-1.1-2.8-2-4c-0.8-1-1.2-2.3-1.9-3.3c-2-2.9-5.1-4.7-8.5-4.7c-0.3,0-0.6,0-0.9,0
				c-0.2,0-0.3,0-0.5,0c0,0-0.4,0-0.3,0c-0.2,0-0.6-0.1-0.5-0.1c-0.2,0-0.5-0.1-0.7-0.1c-0.4,0-1.1,0-1.5,0.2c0,0,0,0-0.1,0
				c-0.1,0-0.3,0-0.4,0c-0.4,0-0.9,0-1.3,0.1c-0.8,0.1-1.6,0.5-2.3,0.9c-0.6,0.3-1.2,0.5-2,0.8c-0.5,0.2-1.1,0.5-1.6,0.8
				c0-0.1-0.1-0.2-0.1-0.2c0,0,0,0,0-0.1c0-0.2-0.1-0.4-0.2-0.7c-0.3-0.8-0.7-1.5-1-2.2c-0.7-1.5-1.6-2.6-3.2-3.1
				c-0.2-0.1-0.3-0.1-0.5-0.1c0,0,0,0,0,0c-0.1-0.1-0.3-0.3-0.5-0.4c-0.7-0.5-1.4-0.5-2.2-0.8c-0.9-0.3-1.7-0.4-2.6-0.2
				c-0.6,0.1-1.2,0.3-1.9,0.4c-1.6,0.3-2.8,1.4-4,2.4c-1.2,1-2.1,2.1-2.5,3.7c-0.1,0.4-0.1,0.8-0.2,1.2c0.1-0.4-0.1,0.6-0.1,0.7
				c-0.2,0.9-0.4,1.7-0.4,2.6c0,0.9,0.1,1.9,0.1,2.9c0,0.6,0,1.2,0,1.8c-0.1,0.1-0.3,0.1-0.4,0.2c-0.1,0.1-0.7,0.3-0.2,0.1
				c-0.3,0.1-0.6,0.2-0.9,0.3c-0.6,0.3-1.1,0.7-1.6,1.2c0.4-0.4-0.3,0.2-0.4,0.3c-0.3,0.2-0.6,0.5-0.9,0.7c-0.4,0.4-0.9,0.7-1.3,1.1
				c-1,1-1.9,2.2-2.4,3.6c-0.4,0.3-0.7,0.6-1,1c-0.2,0.2-0.3,0.5-0.5,0.7c-0.5-0.9-1.2-1.6-2-2.1c-0.7-0.4-1.5-0.7-2.3-0.7
				c-0.7,0-1.3,0.3-1.9,0.3c-1.5,0.1-3,0.9-4.1,2c-0.9,0.9-2,1.6-2.8,2.6c-0.4,0.5-0.7,1-1.1,1.5c0,0-0.3,0.4-0.3,0.4
				c0,0-0.6,0.5-0.3,0.3c-0.7,0.5-2.1,1.3-2.8,1.2c-0.9-0.1-1.7-0.9-2.4-1.4c-0.3-0.2-0.6-0.4-1-0.6c0,0,0,0-0.1,0
				c0.1-0.4,0.1-0.8,0.1-1.2c0-1-0.3-1.8-0.7-2.7c-0.3-0.6-0.8-1.2-1.2-1.7c-0.4-0.5-0.9-1-1.5-1.4c-0.7-0.4-1.4-0.4-2.1-0.2
				c-0.2-0.5-0.4-1.1-0.6-1.6c0-0.4,0.1-0.7,0.1-1.1c0.1-2.1-0.3-4.1-0.5-6.1c-0.1-0.9,0-1.7-0.1-2.6c-0.1-1-0.1-2-0.1-2.9
				c0.1-2.1,0.3-4.1,0.3-6.2c0-1-0.1-1.9-0.2-2.9c0-1.1,0-2.2-0.1-3.3c-0.1-2.1,0-4.2,0-6.4c0-2.2,0.3-4,0.3-6.2c0-1,0-1.9,0-2.9
				c0-0.5,0-1-0.1-1.5c0-0.2,0-0.4,0-0.7c0,0,0.1-0.9,0-0.5c0.3-2.2,0.7-4.6,0-6.8c0,0-0.1-0.2-0.1-0.2c0-0.2,0-0.5,0-0.7
				c0-0.6,0-1.2-0.1-1.8c-0.2-1.3-0.4-2.7-1-3.9c-0.3-0.7-0.9-1.1-1.5-1.2c0-0.1,0-0.3-0.1-0.4c-0.1-1.3-0.1-2.7,0-4
				c0-2.5-3.7-2.5-3.8,0c0,0.7-0.3,1.4-0.4,2c-0.1,0.6-0.2,1.2-0.3,1.8c-0.9,0-1.8,0.5-1.8,1.7c0,3-0.5,6-0.9,9
				c-0.2-1.6-0.7-3.1-1.1-4.8c-0.2-0.9-0.3-1.8-0.4-2.8c0-0.5-0.1-1.1-0.2-1.6c-0.1-0.5-0.4-0.9-0.3-1.4c0-0.8-0.7-1.6-1.4-1.7
				c-0.9-0.1-1.5,0.4-1.8,1.2c-0.4,1-0.3,2.1-0.3,3.2c0,1-0.1,2-0.2,3c-0.5,0.3-0.9,0.8-0.9,1.6c0,0.5,0,1,0,1.4
				c-0.2,3-1.2,5.9-1.6,8.8c-0.1,0.5,0,1,0.2,1.4c-0.8,2.3-0.2,4.9-0.2,7.6c-0.1,3.9,0,7.8,0.3,11.8c0.4,6.3-0.6,12.7-1.1,19
				c-0.3,3,0.8,7.8-2.4,9.3c-3,1.4-6.8,0.3-10,0.4c-2.7,0-6.7,0.1-8.7,2.3c-0.2,0.2-0.3,0.4-0.4,0.6c-1.3-5.1-4.9-9.5-9.8-10.7
				c-3.9-0.9-7.6,0.2-10.4,3c0-0.2,0-0.3,0-0.5c0-5.1-2.4-10.4-5.6-14.1c-3.1-3.6-7.9-6.1-12.7-5.3c-0.1,0-0.2,0-0.3,0.1
				c2.1-7.2-1.2-16-9.2-17.7c-1.6-0.3-3.1,0.1-4.5,0.8c-0.4,0-0.9-0.1-1.3,0c-5.2,0.4-6.5,6.3-6.2,12c-0.1,1-0.2,2-0.1,3
				c-4.3,0.1-9,2.4-12,4.9c-2.1,1.8-3.5,4.2-4.1,6.9c-3.4-1.1-7-1.1-9.6,2c-2.8,3.4-3.9,7.8-4.5,12.1c-0.6,4.1-0.4,7.8,1.7,11.4
				c0.3,0.5,0.6,0.8,0.9,1.2c-2.2,2.9-4.5,5-6.1,8.5c-1.9,4.1-2.6,7.9-3.1,12.4c-0.3,2.5-1.6,13.2,2,13.8c0.3,0,0.5,0,0.6-0.2
				c0.7,0.9,1.7,0.9,2.8,1.1c1.1,0.1,2.3,0.2,3.4,0.3c1.1,0,2.1,0,3.2,0c1.1,0,2.1,0.2,3.1,0.3c4.5,0.3,9.2-0.3,13.7-0.6
				c4.7-0.3,9.3-0.7,14-1.2c3.6-0.4,7.2-0.7,10.8-1.1c-0.4,0.9,0,2.4,1.3,2.5c1,0.1,2-0.3,3-0.5c1.1-0.2,2.3-0.2,3.4-0.2
				c2.4-0.1,4.7-0.2,7.1-0.4c4.7-0.2,9.4-0.2,14.1-0.2c2.2,0,4.5-0.4,6.7-0.4c2.3,0,4.5,0.1,6.8,0.2c4.9,0.3,9.8,0.3,14.7,0.2
				c6.3-0.2,12.5-0.4,18.8-0.6c0.1,0.7,0.6,1.3,1.5,1.3c6,0,12-0.2,18-0.3c1.7,0,3.5-0.1,5.2-0.1c0.1,0.8,0.6,1.5,1.5,1.5
				c2.1-0.1,4.1,0.2,6.1,0.6c2.1,0.3,4.2,0.6,6.3,0.7c2,0.1,4.1,0.1,6.1-0.1c2.1-0.2,4.1-0.2,6.2-0.1c8.5,0.5,16.9-0.5,25.3-1.1
				c3.1-0.2,6.3-0.5,9.4-1c1.5,0,3.1,0.3,4.6,0.5c2,0.3,4.3-0.1,5.7-1.6c0,0.2,0.1,0.4,0.2,0.5c0,0.1,0,0.1-0.1,0.2
				c-0.1,0.3-0.1,0.6-0.2,0.9c-0.1,0.5-0.6,0.9-0.8,1.4c-1.2,1.7,1.5,3.9,2.9,2.3c0.6-0.8,1.2-1.5,1.4-2.5c0.1-0.6,0.3-1.3,0.5-1.9
				c0.2-0.3,0.4-0.6,0.5-1.1c0.1-0.5,0-0.7,0.2-1.1c0.3-0.9,0.5-2,0.6-3c0.1-0.9,0-1.8,0.1-2.6C265.7,276.3,265.8,275.2,265.7,274z
				 M50.9,233.7c-0.1,0.1-0.2,0.3-0.3,0.4c0.3-0.9,0.8-1.9,1.3-2.5c0.1,0,0.3,0,0.5,0.1C51.9,232.4,51.4,233,50.9,233.7z
				 M215.8,282.3c-0.6,0-1.2,0.1-1.8,0.1c0,0,0-0.1,0-0.1c0.5,0,0.9,0,1.4-0.1c1.1-0.1,2.1-0.3,3.2-0.3c-0.1,0-0.1,0-0.2,0
				c-0.7,0.1-1.3,0.2-2,0.3C216.2,282.2,216,282.3,215.8,282.3z M247.2,249.2c0.4-1,0.8-2,1.1-2.9c0.1,0.3,0.2,0.6,0.3,1
				c0.3,1.6,0.8,2.8,1.7,4.1c-0.5,0-0.9,0-1.4,0c-0.7,0-1.4,0.1-2.2,0.1C246.9,250.7,247.1,250,247.2,249.2z M198.3,279.7
				c0.2,0,0.4,0,0.6,0c-1.9,0-3.8,0.1-5.6,0.2c-3.4,0.2-6.8,0.3-10.2,0.4c0.6-0.1,1.2-0.2,1.8-0.2
				C189.4,279.7,193.9,279.7,198.3,279.7z M187.1,243.6c-0.1,0.3-0.2,0.5-0.3,0.8c0.1-0.3,0.1-0.3,0-0.1c-0.2,0.2-0.4,0.5-0.5,0.8
				c-0.4-0.2-0.9-0.3-1.4-0.4c0,0,0-0.1,0-0.1C185.6,244.4,186.4,244,187.1,243.6z M175.6,242.5c0.3-0.2,0.6-0.4,0.9-0.6
				c0.2-0.2,0.5-0.4,0.7-0.6c0.2,0.2,0.5,0.5,0.7,0.7c-0.5,0-0.9,0.2-1.3,0.5c-0.1,0-0.3,0.1-0.4,0.1c-0.2,0.1-0.4,0.2-0.6,0.3
				C175.6,242.8,175.6,242.7,175.6,242.5z M158.7,185.6C158.7,185.6,158.7,185.5,158.7,185.6c0.1,0.1,0.1,0.4,0.2,0.6
				c0,0.1,0,0.3,0.1,0.4c-0.2,0-0.3,0-0.5,0C158.5,186.3,158.6,185.9,158.7,185.6z M113.3,281.6c-1.4,0-2.8,0-4.2,0
				c0.7-0.1,1.5-0.1,2.2-0.1c2.2,0,4.4,0.1,6.6,0c1.7-0.1,3.4-0.2,5.1-0.2c-0.7,0-1.5,0.1-2.2,0.2
				C118.4,281.8,115.8,281.7,113.3,281.6z"/>
		</g>
	</g>
	<path class="st1" d="M119.4,259.3c0,0.1,0,0.1,0,0.2c-0.3,0.1-0.4,0-0.7,0c-0.2,0-0.4,0.2-0.6,0.2c-0.8,0.2-1.5-0.2-2.2-0.4
		c-1.8-0.6-3.2-1.9-4.7-3c-0.5-0.4-1.2-0.7-1.7-1.1c-0.8-0.6-1.1-1.4-1.7-2.2c-0.4-0.5-0.7-1-1-1.6c-0.2-0.4-0.5-0.7-0.5-1.2
		c0.3,1.8-2.7-0.8-2.9-1.1c-0.4-0.3-0.8-0.6-1.2-1c-0.3-0.4-0.3-0.7-0.8-0.8c-0.8-0.1-1,0.8-1.4,1.2c-1.4-1-2.9-1.8-4.4-2.7
		c-1.5-0.9-2.7-2.3-4.1-3.2c-0.8-0.5-1.6-0.6-2.4-0.8c-0.9-0.2-1.8-0.6-2.7-0.8c-1.1-0.1-2.3-0.4-3.3-0.3c-0.7,0.1-1.3,0.2-2,0.2
		c-0.5,0-1-0.1-1.5,0c-0.6,0.2-1.2,0.7-1.7,1.1c-0.6,0.5-1.3,1-1.9,1.6c-0.7,0.7-1.5,1.2-2.3,1.8c-0.5,0.4-1,0.8-1.4,1.3
		c-0.2,0.3-0.3,0.5-0.6,0.7c-0.3,0.3-0.8,0.4-1.2,0.8c-0.4,0.3-0.7,0.8-1,1.2c-0.4,0.6-0.5,1.1-0.8,1.8c-0.2,0.6-0.4,1.2-0.7,1.8
		c-0.2,0.6-0.8,1.1-0.9,1.7c0.2,0,0.5-0.5,0.7-0.6c-0.1,0.7-0.1,1.2-0.4,1.9c-0.3,0.7-0.5,1.7-0.9,2.3c-0.3,0.4-0.8,0.8-1.1,1.2
		c-0.4,0.5-0.8,1.2-1.3,1.6c-0.2,0.2-0.4,0.2-0.4,0.4c0.4,0.2,0.5-0.1,0.7-0.4c0.5-0.6,1-0.7,1.7-1.1c0.9-0.6,1.6-1.5,2.4-2.3
		c0.5-0.5,0.6-1,1-1.5c0.6-0.7,1.2-1.2,1.7-2c0.4-0.6,0.9-1.2,1.3-1.8c0.5-0.7,1-1.2,1.5-1.8c0.3-0.3,0.4-0.8,0.7-1.1
		c0.2-0.2,0.4-0.3,0.6-0.4c0.4-0.4,0.7-1,1.1-1.4c0.4-0.3,0.7-0.5,1.1-0.9c0.3-0.3,0.6-0.7,0.9-0.9c0.2-0.2,0.5-0.2,0.7-0.3
		c0.7-0.5,0.7-0.7,1.6-0.8c1.1,0,2.5-0.2,3.6,0.1c0.9,0.2,1.7,0.5,2.7,0.4c1,0,1.8,0.1,2.6,0.9c0.3,0.3,0.6,0.2,0.8,0.4
		c0.2,0.2,0.3,0.4,0.5,0.7c0.3,0.3,0.6,0.5,1,0.8c0.8,0.6,1.3,1.5,1.9,2.3c0.5,0.6,0.9,1.3,1.7,1.5c1.1,0.3,2.4-0.1,3.4-0.3
		c1-0.2,1.9,0.6,2.7,1c0.9,0.5,1.6,0.7,2.4,1.5c1,1,1.4,2.4,2.2,3.5c0.5,0.7,1.4,1,2.1,1.4c0.4,0.3,0.7,0.3,1.2,0.3
		c0.1,0,0.3,0,0.5,0c0.3,0,0.3,0.1,0.5,0.2c0.8,0.2,1.6,0.5,2.4,0.8C114,261,114.9,260.4,119.4,259.3z"/>
	<g>
		<path class="st1" d="M72,223.3C72,223.3,72,223.3,72,223.3C72,223.3,72,223.3,72,223.3C72,223.3,72,223.3,72,223.3
			C72,223.3,72,223.3,72,223.3z"/>
		<path class="st1" d="M91,232.1c-0.4-0.1-0.7-0.1-1.1-0.1c-0.3,0-0.6-0.2-0.9-0.3c-0.1,0-0.2,0-0.3-0.1c-0.3-0.4-0.7-0.7-1.1-1
			c-0.4-0.3-0.7-0.7-1.1-0.9c-0.3-0.1-0.6-0.3-0.9-0.3c-0.2-0.3-0.7-0.9-0.8-1c-0.3-0.3-0.6-0.6-0.9-0.9c-0.7-0.6-1.1-1.4-1.9-2
			c-0.3-0.2-0.7-0.3-1-0.2c-0.2-0.1-0.3-0.3-0.5-0.4c-0.2-0.1-0.4-0.2-0.6-0.2c0.1,0-0.3-0.5-0.4-0.6c-0.4-0.4-0.9-0.8-1.4-1.1
			c-0.3-0.1-0.6-0.3-0.9-0.4c-0.1,0-0.1,0-0.2,0c-0.1-0.3-0.3-0.5-0.5-0.6c0-0.2-0.1-0.4-0.2-0.5c-0.1-0.3-0.3-0.6-0.5-0.9
			c-0.6-0.8-1.3-1.5-2.1-2c-0.6-0.3-1.2-0.4-1.9-0.4c0,0,0,0-0.1,0c0,0-0.1,0-0.1,0c-0.4-0.1-0.7-0.2-1.1-0.2
			c-0.9-0.1-1.9,0-2.8,0.2c-2,0.5-3.3,2.2-4.2,4.1c-0.4,0.8-0.6,1.6-0.7,2.5c-0.1,0.4,0,0.8-0.5,0.8c-0.4,0-0.7,0-1.1,0.1
			c-0.3,0.1-0.4,0.6,0,0.7c0.7,0.2,1.1,0.7,1.9,0.6c0.7-0.1,1.5-0.4,2-0.9c0.5-0.5,0.8-1.1,1.4-1.5c0.7-0.5,1.4-1,2.1-1.5
			c0,0,0.1-0.1,0.2-0.1c0.1,0,0.3,0,0.1,0c0.4,0,0.8-0.1,1.2,0c0.2,0,0.2,0,0,0c0.1,0,0.2,0.1,0.3,0.1c0.3,0.1,0.6,0.2,0.9,0.2
			c0,0,0.4,0,0.5-0.1c-0.1,0-0.5-0.2,0,0c0,0,0.1,0,0,0c0,0,0.1,0,0.1,0c0.2,0.1,0.4,0.2,0.8,0.4c0.2,0.1,0.3,0.2,0.5,0.2
			c0,0,0,0,0,0c0,0.2,0.8,0.6,1,0.7c0.1,0,0.1,0.1,0.2,0.1c0.2,0.3,0.5,0.5,0.8,0.6c0.8,0.1,1.3,0,1.8,0.7c0.5,0.6,0.7,1.2,1.4,1.6
			c0.6,0.3,1.2,1,2,1.2c0.2,0.3,0.3,0.7,0.5,0.9c0.3,0.4,0.8,0.7,1.1,1.1c0.4,0.5,0.6,1.1,1.1,1.6c0.4,0.3,0.8,0.6,1.3,0.7
			c0.1,0,0.2,0,0.3,0c0,0,0.1,0.1,0.1,0.1c0.5,0.6,1.2,0.8,1.9,1c0.2,0,0.2,0,0,0c0.2,0.1,0.5,0.2,0.7,0.2c0.4,0,0.7-0.1,1-0.3
			c0,0,0.1-0.1,0.2-0.2c0,0,0.1,0,0.2,0c0.1,0,0.3,0,0.4,0c0.7,0,1.3-0.2,1.8-0.8C91.6,233,91.5,232.3,91,232.1z"/>
	</g>
	<g>
		<path class="st1" d="M134.5,254.3C134.5,254.3,134.5,254.3,134.5,254.3C134.5,254.4,134.5,254.4,134.5,254.3z"/>
		<path class="st1" d="M141.8,245.3c-0.8-0.4-1.7,0.1-2.1,0.8c-0.1,0.2-0.2,0.4-0.3,0.7c0,0,0,0,0,0c-0.1,0-0.2,0-0.2,0
			c-0.5,0-0.9-0.2-1.4-0.2c-0.3,0-0.5,0-0.8,0.1c-0.1,0-0.2,0-0.3,0c-0.2,0-1.7,0.1-1.6,0.1c-0.5,0.1-1.1,0.4-1.5,0.7
			c-0.8,0.6-1.5,1.4-1.9,2.4c-0.7,1.4-1.6,3.4-0.9,5c-0.1,0.1-0.2,0.1-0.3,0.2c-0.5,0.4-0.7,1-0.5,1.6c0.4,1,1.7,0.8,2.5,0.5
			c0.9-0.3,1.8-0.7,2.1-1.7c0.1-0.4,0.1-0.9,0-1.3c0,0,0-0.1-0.1-0.3c0-0.1,0-0.1,0-0.1c0,0,0,0,0-0.1c0,0,0,0,0,0
			c0.2-0.3,0.3-0.7,0.5-1c0.1-0.1,0.2-0.2,0.2-0.4c0,0,0,0,0-0.1c0,0,0,0,0,0c0.2-0.3,0.4-0.5,0.7-0.7c0,0,0,0,0,0c0,0,0,0,0,0
			c0.1,0,0.2,0,0.2,0c0.6,0,1-0.2,1.5-0.4c0.7-0.4,1.5-0.8,2.1-1.5c0.5-0.5,1.1-1.1,1.1-1.9c0-0.1,0-0.1,0-0.2l0,0c0,0,0,0,0,0
			c0,0,0-0.1,0-0.1c-0.1-0.1-0.1-0.2-0.2-0.3c0-0.4,0.4-0.8,0.8-0.7C142.1,246.7,142.4,245.6,141.8,245.3z"/>
	</g>
	<path class="st1" d="M122.2,232.1c-0.3-0.7-0.9-1.1-1.5-1.4c-0.4-0.2-0.7-0.3-1.2-0.4c-0.2,0-0.4,0-0.6,0.1c-0.1,0-0.2-0.1-0.2-0.1
		c-0.2-0.1-0.4-0.1-0.7-0.2c-0.7-0.1-1.3-0.3-2-0.2c-0.8,0.1-1.5,0.2-2.1,0.7c-0.6,0.4-1.1,0.9-1.5,1.5c-1,1.5-0.8,3.3-0.4,5
		c0,0,0,0,0,0c-0.2,0.1-0.4,0.3-0.6,0.5c-0.3,0.4-0.7,0.9-1,1.3c-0.3,0.4-0.5,0.8-0.5,1.2c-0.1,0.2-0.1,0.5,0,0.7c0,0.1,0,0.3,0,0.3
		c-0.2,0.4-0.2,0.9,0.1,1.2c0.3,0.3,0.8,0.4,1.1,0.2c0.2-0.1,0.4-0.3,0.6-0.4c0.1-0.1,0.2-0.1,0.3-0.2c0,0,0.1,0,0.1-0.1
		c0,0,0,0,0,0c0.3,0,0.8-0.4,1.1-0.5c0.1-0.1,0.3-0.2,0.4-0.2c0.4-0.1,0.7-0.2,1-0.4c0.2-0.1,0.5-0.1,0.7-0.3c0,0,0.1,0,0.1-0.1
		c0.2,0.1,0.5,0.1,0.8,0c0.4-0.1,0.7-0.4,0.9-0.7c0.1-0.1,0.1-0.2,0.1-0.3c0,0,0,0,0,0c0,0.1,0,0,0.1-0.1c0,0,0,0,0,0
		c0.1,0,0.1,0,0.1,0c0.1,0,0.2-0.1,0.4-0.1c0.3-0.1,0.7-0.3,1-0.3c0.2,0,0.4,0,0.6,0c0,0,0,0,0,0c0,0,0,0,0.1,0.1
		c0.2,0.1,0.4,0.2,0.6,0.2c0.6,0,1.1-0.6,0.9-1.3c-0.2-0.7-0.6-1.1-1.2-1.3c-0.7-0.2-1.4-0.1-2,0.1c-0.4,0.1-0.8,0.3-1.1,0.4
		c-0.2-0.3-0.5-0.6-0.7-0.8c-0.2-0.2-0.4-0.3-0.7-0.3c0.1-0.1,0.1-0.2,0.2-0.3c0.1-0.1,0.1-0.2,0.2-0.2c0.1-0.1,0.3-0.3,0.4-0.4
		c0,0,0,0,0,0c0,0,0.1,0,0.1-0.1c0,0,0.1,0,0.1,0c0.1,0,0.1,0,0.2,0c0.6,0,1.2-0.1,1.7-0.2c0.8-0.2,1.4-0.7,1.8-1.4
		c0.1,0.1,0.2,0.1,0.3,0.1c0.2,0.1,0.5,0.2,0.7,0.2c0.4,0.1,0.8-0.1,1.1-0.4C122.4,232.9,122.4,232.5,122.2,232.1z"/>
	<g>
		<polygon class="st1" points="175.2,234.5 175.2,234.5 175.2,234.5 		"/>
		<path class="st1" d="M199.3,233.7c-0.5-0.6-1.1-0.4-1.8-0.6c-0.6-0.2-1.1-0.6-1.6-0.7c-1.2-0.4-2.5-0.1-3.7,0.4
			c-1.1,0.5-2.2,1-2.9,2.1c-0.3,0.5-0.4,1.2-0.7,1.8c-0.2,0.6-0.7,1.1-1.1,1.6c-0.1,0.1-0.2,0.1-0.3,0.2c-0.4,0.3-0.8,0.7-1.2,1
			c-0.4,0.1-1,0.1-1.3,0.1c0,0,0,0,0,0c-0.1,0-0.2-0.1-0.4-0.2c-0.3-0.1-0.6-0.3-1-0.4c-0.6-0.2-1.3-0.5-1.9-0.6
			c-1.3-0.2-2.7-0.2-3.9,0.5c-0.1,0.1-0.2,0.1-0.2,0.2c0-0.2,0-0.4,0-0.5c0-0.2,0-0.5,0-0.7c0,0,0,0,0,0l0,0c0,0,0,0,0,0
			c0,0,0-0.1,0-0.1c0,0,0.1-0.1,0.1-0.1c0.1-0.1,0.2-0.2,0.3-0.4c0.2-0.3,0.3-0.5,0.5-0.8c0.4-0.9,0.5-2,0-2.8
			c-0.4-0.7-1-1.2-1.8-1.3c-0.1,0-0.4-0.1-0.1,0c-0.1,0-0.1,0-0.2,0c0,0,0,0,0,0c-0.3-0.1-0.6-0.2-0.9-0.2c-0.3,0-0.6,0.2-0.7,0.6
			c-0.1,0.3,0,0.7,0.3,0.9c0,0,0.2,0.1,0.1,0.1c0,0,0,0,0,0c0,0,0,0,0.1,0.1c0.1,0.2,0.3,0.3,0.4,0.5c0,0,0.1,0.1,0.1,0.1
			c0,0.1-0.1,0.1-0.1,0.1c0,0-0.1,0.1-0.2,0.2c0.1-0.1,0.3-0.2,0,0c0,0,0,0,0,0c0,0,0,0,0,0c0,0,0,0,0,0c-0.1,0.1-0.3,0.2-0.5,0.3
			c-0.1,0.1-0.2,0.2-0.4,0.3c-0.1,0.1-0.3,0.2-0.4,0.3c-0.1,0.1-0.2,0.1-0.3,0.2c-0.2,0.2-0.3,0.4-0.4,0.6c-0.3,0.6-0.4,1.2-0.4,1.9
			c0,0.6,0.1,1.2,0.1,1.8c0.1,0.7,0.5,1.4,1,1.8c0.5,0.5,1.2,0.6,1.8,0.4c0.3,0.6,1.2,0.8,1.7,0.3c0.4-0.5,1.5-0.6,2-0.5
			c1.1,0.1,2.1,0.5,3.1,0.9c0.5,0.2,0.9,0.3,1.4,0.3c0,0.7,0.1,1.4,0.5,2.2c-0.1,0.1-0.1,0.2-0.2,0.3c-0.7,0.9-1.3,2.1-1.5,3.2
			c-0.2,1.1-0.1,2.3-0.2,3.4c-0.1,1.2-0.3,2.5-0.7,3.6c-0.3,0.8,1,1.4,1.4,0.6c0.5-1.1,1.3-2,1.8-3.1c0.3-0.8,0.4-1.7,0.9-2.4
			c0.3-0.4,0.8-0.8,1.2-1.2c0.2-0.2,0.4-0.4,0.6-0.5c0.1-0.1,0.1-0.1,0.2-0.1c0,0,0.1-0.1,0.2-0.1c1.1-0.9,2.1-2.1,2.1-3.6
			c0-0.7-0.2-1.3-0.5-2c0,0,0,0,0,0c0,0,0.1-0.1,0.1-0.1c0.3-0.4,0.5-0.7,0.8-1.1c0.6-0.8,0.9-1.7,1.1-2.6c0,0,0.1,0,0.1,0
			c0.2,0,0.4-0.1,0.5-0.2c0.4-0.2,0.8-0.3,1.1-0.7c0.8-0.8-0.3-2.3-1.2-1.6c-0.5,0.4-1.2,0.3-1.8,0.3c0,0,0.1-0.1,0.1-0.1
			c0.7-0.8,1.6-1.2,2.6-1.6c0.5-0.2,1-0.4,1.5-0.6c0.6-0.1,1,0,1.5,0.2c1,0.4,2.6,0.7,3.3-0.2C199.7,234.6,199.7,234.1,199.3,233.7z
			"/>
	</g>
	<path class="st1" d="M213.6,225.4c-0.2,0.3-0.4,0.6-0.6,0.8c0,0,0-0.1-0.1-0.1c-0.1-0.2-0.4-0.3-0.6-0.4c-1.1-0.4-2.3-0.8-3.4-0.4
		c-0.6,0.2-1.2,0.5-1.6,0.8c-0.2,0.1-0.4,0.3-0.6,0.5c0,0-0.1,0-0.2,0.1c0,0,0,0,0,0c-0.1,0-0.1,0-0.2,0c-0.4,0-0.8,0.1-1.2,0.2
		c-0.6,0.2-1.2,0.5-1.7,0.9c-1.8,1.4-2.5,3.8-2.6,6.1c-0.1,1.2,0.1,2.3,0.4,3.5c0.2,0.6,0.2,1.3,0.3,1.9c0.2,0.6,0.4,1.2,0.7,1.7
		c0.1,0.2,0.4,0.3,0.6,0.3l0.2,0c0.5,0,0.8-0.8,0.5-1.1c0-1,0.1-2.1,0.4-3.1c0.2-0.5,0.3-1.1,0.5-1.7c0-0.1,0.1-0.2,0.1-0.2
		c0.1-0.2,0.2-0.4,0.3-0.6c0.3-0.7,0.7-1.5,1.1-2.1c0-0.1,0.1-0.1,0.1-0.2c0,0,0.2-0.2,0.2-0.3c0,0,0.1,0,0.1,0c0.1,0,0.1,0,0.2-0.1
		c0,0,0,0,0.1,0c0,0,0.1,0,0.1,0c0.6-0.1,1.1-0.1,1.6-0.4c0.7-0.4,1.3-0.9,1.6-1.6c0.3-0.6,0.4-1.2,0.6-1.8
		c-0.1,0.2,0.1-0.2,0.1-0.3c0-0.1,0.4-0.4,0.2-0.3c0.3-0.1,1,0,1.2,0.1c0.4,0.2,0.7,0.3,1.1,0.2c0.8-0.2,1.1-1.1,1.5-1.7
		C214.8,225.5,214,224.9,213.6,225.4z"/>
	<path class="st1" d="M225.9,214.9c0-0.1,0-0.1,0-0.3c0-0.2-0.1-0.3-0.2-0.5c-0.1-0.2-0.2-0.4-0.3-0.6c-0.3-0.4-0.6-0.8-0.9-1.2
		c-0.9-1.1-2-1.5-3.4-1.4c-1.1,0-2-0.7-3-1c-1.4-0.4-2.7-0.6-4-0.2c-2.3,0.7-4.6,2.8-5.1,5.4c-0.2,0.8-0.2,1.5-0.2,2.3
		c0,0.3,0,0.5,0,0.7c0,0.3,0,0.3,0,0.1c0,0.2,0,0.3-0.1,0.5c-0.2,1.1-0.1,2.3,0.5,3.3c0.3,0.4,0.7,0.8,1.3,0.7c0.2,0,0.3,0,0.5,0
		c0.6-0.1,1.1-0.7,1-1.3c0.1-0.4,0.1-0.8,0.3-1.3c0.2-0.6,0.6-1.1,0.8-1.7c0.2-0.5,0.3-1,0.4-1.5c0-0.1,0.1-0.3,0.1-0.3
		c0.1-0.2,0.2-0.3,0.3-0.5c0-0.1,0.3-0.3,0.3-0.4c0.1-0.1,0.2-0.2,0.3-0.3c0.1-0.1,0.2-0.2,0.2-0.2c0.2-0.1,0.3-0.2,0.5-0.3
		c0.4-0.2,0.8-0.4,1.2-0.6c-0.5,0.3,0.1,0,0.2,0c0.2-0.1,0.4-0.1,0.6-0.2c0.5-0.1,1-0.2,1.5-0.3c0.4-0.1,0.6-0.2,0.9-0.1
		c0.6,0.1,1.2,0.1,1.9,0c0.4,0,0.6,0,0.9,0.2c0.2,0.1,0.3,0.3,0.4,0.5c0.1,0.1,0.2,0.2,0.3,0.3c0.2,0.2,0.2,0.2,0.1,0.1
		c0.5,0.8,1.2,1.8,2.3,1.3C225.7,216,226.1,215.5,225.9,214.9z"/>
	<path class="st1" d="M255.5,237.1c-0.1-1.3-0.4-2.5-0.3-3.8c0-1.2,0.2-2.5,0.1-3.7c-0.1-1.3-0.3-2.6-0.6-3.9
		c-0.3-1.2-0.5-2.3-1.3-3.3c-1.3-1.6-3-3-5-3c-0.1-0.1-0.2-0.2-0.3-0.4c-0.4-0.5-0.8-1.1-1.4-1.5c-1-0.8-2.1-0.6-3.3-0.9
		c-1.3-0.4-2.4-1.1-3.8-0.9c-0.6,0.1-1.1-0.1-1.7-0.2c-0.7,0-1.3,0.2-2,0.2c-0.6,0.1-1.1,0.3-1.7,0.5c-0.8,0.2-1.7,0.4-2.5,0.6
		c-0.7,0.1-1.3,0.3-2,0.4c-0.6,0.1-1.2,0.1-1.9,0.2c-1.3,0.3-2.6,1.2-3.6,2.1c-1.1,1-2.5,2.1-3.1,3.5c-0.5,1.2-1.3,2.9-1.2,4.3
		c0.1,0.5,0.8,0.7,0.9,0.1c0.2-0.9,1-1.3,1.5-2c0.4-0.5,0.7-1,1.2-1.5c0.6-0.6,1.3-1.1,2-1.7c0.5-0.5,1-1,1.6-1.4
		c0.5-0.3,1-0.7,1.6-0.7c0.8-0.1,1.4-0.2,2.1-0.5c1.5-0.6,3-1.1,4.5-1.7c0.6-0.3,1.3-0.4,2-0.5c0.6-0.1,1.2,0.2,1.9,0.1
		c0.3,0,0.7-0.2,1.1-0.2c0.4,0,0.8,0.2,1.2,0.3c0.6,0.3,1.2,0.6,1.9,0.8c0.5,0.2,1.2,0.1,1.7,0.4c0.4,0.2,0.7,0.7,0.9,1.1
		c-0.8-0.5-1.8-0.6-2.8-0.3c-0.3,0.1-0.6,0.2-0.8,0.3c-0.2-0.1-0.5-0.2-0.7-0.3c-1.1-0.5-2.3-0.6-3.5-0.4c-1.1,0.2-1.9,0.7-2.9,1.3
		c-0.9,0.5-1.8,1.4-2.2,2.5c-0.2,0.4-0.3,0.8-0.4,1.3c-0.2,0.7-0.7,1.1-1.2,1.6c0,0,0,0.1,0,0c0.7-0.5,1.7-1,2.6-1.2
		c0.8-0.2,1.6-0.5,2.4-0.6c0.8-0.1,1.6-0.4,2.4-0.2c0.8,0.2,1.5,0.9,2.4,1.2c1.1,0.4,2.2,0,3.1-0.7c0.1,0.1,0.2,0.2,0.3,0.2
		c0,0,0,0,0,0c0,0,0,0,0,0c0.1,0.1,0.2,0.3,0.3,0.4c0.1,0.2,0.3,0.3,0.4,0.5c0.2,0.2,0.4,0.4,0.5,0.6c0.2,0.4,0.4,0.7,0.7,0.9
		c-0.3,0.8-0.3,1.7,0.2,2.5c0.5,0.9,1.4,1.8,2.4,1.9c0.5,0.3,1.2,0.5,1.7,0.5c0.5,0,1-0.5,1-1c0-0.8-0.5-1-0.9-1.4
		c0-0.1-0.1-0.3-0.2-0.4c0-0.1-0.7-0.9-1.1-1.2c0,0,0,0,0,0c0,0,0.1-0.1,0.1-0.2c0.1-0.3,0.3-0.6,0.4-1c0.1-0.3,0.1-0.6,0.1-0.8
		c0,0,0,0.1,0,0.1c0.1,0.1,0.1,0.2,0.2,0.3c0.2,0.5,0.4,1,0.6,1.5c0.4,1,0.7,2,0.9,3.1c0.2,1,0.3,2.1,0.5,3.1
		c0.2,1.1,0.5,2.1,0.7,3.2c0.2,1,0.2,2.2,0.1,3.3c-0.1,0.9-0.4,1.8-0.3,2.8c0,0.4,0.7,0.6,0.8,0.1c0.2-1.1,0.9-2,1.2-3
		C255.5,239.6,255.6,238.3,255.5,237.1z"/>
	<path class="st1" d="M263.7,264.7c-0.1-0.5-0.2-0.9-0.3-1.4c0,0,0-0.1,0-0.1c0-0.2,0-0.4,0-0.6c0.1-1.5-0.5-3.1-0.8-4.5
		c-0.6-2.9-1.7-6.1-4.3-7.8c-2.4-1.6-5.2-2.6-8-3.4c-1.3-0.4-2.6-0.9-3.9-1.5c-0.6-0.3-1.3-0.4-2-0.3c-0.6,0.1-1,0.5-1.4,0.8
		c-0.3,0.2-0.3,0.8,0.1,0.8c0.5,0.1,0.9,0,1.3,0.3c0.5,0.3,1,0.8,1.4,1.2c1,0.8,2.1,1.3,3.3,1.9c2.3,1.1,4.6,2.1,6.7,3.6
		c1.6,1.1,1.9,4,2.2,5.9c0.1,0.7,0.3,1.3,0.4,1.9c0.1,0.6,0,0.8,0,1.4c0,0.9,0.3,1.6,0.7,2.3c0.3,0.5,0.5,1,0.8,1.5
		c0.7,1.1,2.5,1.4,3.2,0C263.7,266.2,263.8,265.5,263.7,264.7z"/>
	<path class="st1" d="M239.2,250.6c-0.3-0.2-0.6-0.4-0.9-0.4c-0.1,0-0.6-0.1-0.9-0.1c0,0,0,0-0.1,0c-0.3-0.2-0.6-0.3-0.9-0.4
		c0-0.3-0.1-0.7-0.1-0.8c0-1.6-2-1.7-2.5-0.3c0.1-0.3,0-0.1-0.3,0c-0.3,0.1-0.6,0.1-0.8,0.1c-0.9,0.2-1.8,0.5-2.7,0.8
		c-0.6,0.2-2.6,0.9-3,0.4c-0.2-0.2-0.2-0.8-0.4-1.1c-0.3-0.4-0.6-0.8-0.9-1.1c-0.7-0.6-1.4-1.2-2.1-1.8c-0.7-0.6-1.5-1.4-2.4-1.7
		c-0.2-0.1-0.5-0.1-0.6-0.1c-0.3-0.2-0.5-0.7-0.8-1c-2.4-3.1-7.4-3.2-10.8-2.2c-1.9,0.6-3.4,1.6-4.9,2.8c-1.5,1.2-3.3,2.3-4.2,4
		c-0.9,1.6-1.5,3.2-3.4,3.6c-1.5,0.3-3.3,0.2-4.3,1.7c-0.3,0.4,0.3,0.9,0.6,0.6c0.7-0.5,1.4-0.3,2.2-0.2c0.9,0.1,1.9,0.2,2.8,0.1
		c1.5-0.2,3.5-1,4.6-2.1c0.5-0.5,0.8-1.1,1.4-1.5c0.7-0.6,1.6-0.9,2.3-1.4c0.8-0.5,1.6-1.1,2.4-1.6c0.8-0.5,1.3-0.6,2.2-0.9
		c0.8-0.2,1.7-0.4,2.4-0.5c0.4-0.1,0.9-0.1,1.3-0.1c0.5-0.1,1.1-0.3,1.6-0.3c0.6,0,0.9,0.3,1.2,0.8c0.6,0.7,1.1,1.4,2,1.8
		c0.3,0.1,0.7,0.1,1,0.3c0.3,0.2,0.6,0.5,0.9,0.8c0.7,0.6,1.5,1.1,2.2,1.7c0.6,0.5,0.9,1.2,1.6,1.6c0.7,0.4,1.3,0.4,2.1,0.3
		c1.8-0.1,3.4-0.6,5.1-0.9c0.2-0.1,0.5-0.1,0.7-0.1c-0.1,1,0.6,2,1.5,2.4c0.7,0.4,1.4,0.9,2.2,1.1c0.5,0.1,1.1,0.1,1.6,0
		c0.3-0.1,0.7-0.2,1-0.5c0.2-0.1,0.3-0.2,0.4-0.4c0.2-0.3,0.2-0.3,0.1-0.1C240.3,252.6,240.2,251.3,239.2,250.6z"/>
	<path class="st1" d="M161.6,257.7c-0.6-1.1-1.8-1.1-2.8-0.9c-0.6,0.1-1.2,0.2-1.8,0.4c-0.3,0.1-0.7,0.3-1,0.4
		c-0.2-0.2-0.5-0.5-0.8-0.7c-0.6-0.3-0.9-0.6-1.4-1c-1-0.9-2.7-1.2-3.9-1.4c-1.8-0.3-3.1,0.6-4.4,1.8c-0.5,0.4-1.1,0.7-1.6,1.1
		c-0.6,0.4-1.1,1-1.7,1.4c-0.6,0.3-0.1,1.3,0.5,1c1-0.5,1.9-0.1,2.9-0.2c1,0,1.9-0.5,2.8-0.5c0,0,0.1,0,0.2,0c0.2,0,0.3,0.1,0.5,0.1
		c0.7,0.1,1.2,0.2,1.9,0c0.8-0.2,1.7-0.8,2.6-0.7c0.7,0.1,1.2,0.3,1.8,0.5c0.7,0.2,0.9-0.1,1.4-0.4c1.3-0.7,2.8-0.8,4-0.2
		C161.3,258.8,161.9,258.2,161.6,257.7z"/>
	<path class="st1" d="M163.3,248.1c-0.3-0.1-0.7-0.1-1,0c-0.1,0-0.2,0.1-0.3,0.1c0,0,0,0,0,0c0,0,0,0-0.1,0c-0.1,0-0.2,0-0.2,0
		c-0.6-0.1-1.3-0.2-1.9-0.1c-0.3,0-0.6,0.1-0.9,0.2c-0.1,0-0.3,0.1-0.4,0.1c0,0,0,0,0,0c0,0,0,0,0,0c0,0-0.1,0-0.1,0
		c-0.1,0-0.4-0.1-0.5-0.2c-0.2-0.1-0.4-0.2-0.7-0.3c-0.3-0.2-0.7-0.1-0.9,0.3c-0.2,0.3-0.1,0.8,0.2,1c0.5,0.3,0.9,0.6,1.4,0.8
		c0.3,0.1,0.6,0.1,0.9,0.1c0.2,0,0.4,0,0.5-0.1c0.1,0,0.1,0,0.2,0c0,0,0.1,0,0.1,0c0.6,0,1.2,0.1,1.8,0.2c0.4,0.1,0.8,0.1,1.2,0
		c0.1,0,0.2-0.1,0.4-0.1c0.1,0,0.2-0.1,0.3-0.1c-0.2,0.1,0.1,0,0.1,0c0.4-0.1,0.6-0.5,0.6-0.8C163.9,248.6,163.6,248.2,163.3,248.1z
		"/>
	<path class="st1" d="M159.1,232.3c-0.3-2.2-2-4.2-1.5-6.5c0.1-0.5,0.2-1.1,0.2-1.6c-0.1-0.6-0.2-1.1-0.3-1.7
		c-0.1-1.2-0.1-2.5-0.5-3.7c-0.1-0.5-0.8-0.5-1,0c-0.3,1-0.4,2.1-0.5,3.1c-0.1,1.1,0.3,2.1,0.1,3.2c-0.2,0.9-0.1,1.9-0.3,2.8
		c-0.3,1.1-0.8,2.1-0.9,3.3c0,0.5,0,1-0.1,1.5c0,0.1,0,0.1,0,0.2c0,0,0,0,0,0c0,0.2-0.1,0.4-0.1,0.6c-0.2,0.6-0.5,1-1,1.8
		c-0.5,0.7-1,1.5-1.6,2.1c-0.6,0.6-1.3,1.1-2,1.7c-0.3,0.3,0.1,0.8,0.4,0.6c0.5-0.3,1.1-0.1,1.6-0.1c0.5-0.1,1-0.2,1.4-0.4
		c0.9-0.3,1.8-0.5,2.7-0.8C158.2,237.6,159.5,234.7,159.1,232.3z"/>
	<path class="st1" d="M161.3,202.7c-0.1-0.6-0.1-1.1-0.2-1.7c-0.1-0.6-0.3-1.2-0.6-1.8c-0.4-1.2-0.5-2.4-0.3-3.6c0.1-1,0.1-2,0-3
		c-0.1-0.8-0.2-1.7-1-2.1c-0.4-0.2-1.2,0.1-0.9,0.7c0.2,0.5-0.2,1.6-0.2,2.1c0,0.5,0.1,1,0,1.5c-0.1,0.6-0.2,1.2-0.3,1.8
		c-0.2,2.4-0.4,4.7,0,7.1c0.2,1.1,0.2,2.2,0.3,3.4c0.2,1.2,0.3,2.5,0.5,3.7c0.1,1.2,0.2,2.4,0.5,3.7c0.2,1.3,0.6,2.7,0.6,4
		c0,0.3,0.4,0.3,0.4,0c0.1-2.7,0.3-5.4,0.7-8C161.1,208,161.8,205.2,161.3,202.7z"/>
	<path class="st1" d="M163.7,197.6c0-1,0.1-2,0-3c0-0.5,0-1,0-1.5c0-0.4-0.1-0.8-0.2-1.2c0-0.3,0-0.6,0-0.8c0-0.2,0-0.3,0-0.5
		c0,0,0-0.2,0-0.1c0.2-0.5-0.2-1.3-0.8-1.1c-0.8,0.3-1.1,1.1-1.2,1.9c-0.1,0.4,0,0.8,0.1,1.2c0.2,0.5,0.1,1,0.2,1.6
		c0.2,1.1,0.4,2.2,0.5,3.3c0.1,1.2,0.3,2.4,0.5,3.7c0.1,0.5,0.8,0.4,0.8-0.1C163.7,199.8,163.6,198.7,163.7,197.6z"/>
	<path class="st1" d="M167.6,208.9c-0.2-2.6-0.2-5.2-0.3-7.8c-0.3-5.3,0.1-10.5,0.5-15.8c0-0.3-0.2-0.4-0.4-0.4
		c0.1-0.2,0.2-0.5,0.2-0.8c0-0.6-0.1-1.2-0.3-1.7c-0.2-0.5-1-0.5-1.2,0c-0.2,0.5-0.2,1-0.4,1.5c-0.1,0.5-0.3,1-0.3,1.5
		c-0.1,1,0.1,2.1,0.1,3.2c0.1,1.2,0.2,2.5,0.3,3.7c0.1,1.3,0.4,2.7,0.5,4c0,1.6,0,3.2,0,4.7c0.1,2.5,0.1,5.1,0.3,7.6
		c0.1,1.3,0,2.6,0,3.9c0,1.2,0.3,2.4,0.4,3.6c0,0.5,0.8,0.5,0.8,0c0.1-1.2-0.2-2.4-0.1-3.6C167.7,211.4,167.7,210.1,167.6,208.9z"/>
	<path class="st1" d="M168.3,236c-0.1-0.4-0.2-0.8-0.4-1.2c-0.2-0.4-0.2-0.8-0.3-1.2c-0.1-0.9-0.1-1.7-0.1-2.6c0-0.2-0.3-0.2-0.3,0
		c-0.1,0.9-0.2,1.8-0.2,2.7c0,0.4,0,0.8,0.1,1.2c0.1,0.4,0.3,0.8,0.3,1.2c0,0.2,0.3,0.3,0.5,0.3C168.2,236.5,168.3,236.2,168.3,236z
		"/>
	<g>
		<path class="st1" d="M55.6,223.6c-0.5-0.7-1.2-0.8-1.9-1c-0.8-0.1-1.5,0-2.3,0c-0.2,0-0.4-0.1-0.7-0.1c-0.5-0.1-0.9,0-1.4,0
			c0,0-0.7,0.1-0.8,0.1c-0.5,0.1-0.9,0.2-1.4,0.5c-1.5,0.9-3.1,2.3-4.1,3.9c-1,1.5-1.3,3.3-1.3,5.2c0,0.4,0,0.7,0,1.1
			c0,0.2,0,0.4,0,0.6c0.1-0.2,0.1-0.1,0,0.2c-0.1,1-0.2,1.9-0.3,2.9c-0.2,1.7-0.1,3.5,0,5.2c0.1,1.9,0.4,3.8,1.4,5.4
			c0.7,1.2,2,2.4,3.3,3c0.5,0.3,1.2,0.1,1.4-0.6c0.3-1.2-0.2-2.4-0.6-3.5c-0.5-1.2-0.7-2.5-0.7-3.8c0-1.5,0-3.2,0.2-4.7
			c0.1-0.5,0.1-1.6,0.2-2.3c0,0.4,0.1-0.5,0.1-0.5c0.1-0.5,0.2-1,0.2-1.5c0-0.7,0-1.4,0-2c0-0.2,0-0.2,0-0.3c0-0.1,0-0.2,0.1-0.3
			c0-0.1,0.2-0.6,0.2-0.6c0.5-0.9,1.6-1.8,2.5-2.6c0.7-0.6,1.1-1.3,1.4-2.2c0.1-0.2,0.1-0.3,0-0.2c0.2-0.3,0.2-0.3,0-0.1
			c0.2-0.1,0.4-0.1,0.6-0.2c0.7-0.2,1.1-0.2,1.8-0.2c0.7,0.1,1.3,0.1,1.8-0.5C55.7,224.4,55.8,223.9,55.6,223.6z"/>
		<path class="st1" d="M48.6,222.7c0.1,0,0.1,0,0.2,0C48.6,222.6,48.5,222.7,48.6,222.7z"/>
	</g>
	<g>
		<path class="st1" d="M43.9,255.1c0.4-0.4,0.2-1.1-0.2-1.4c-0.2-0.1-0.5-0.2-0.7-0.2c-0.1,0-0.6,0-0.7,0c-0.2,0-0.4,0.1-0.6,0.2
			c-0.7,0.4-1.1,1-1.5,1.7c-0.7,1.4-1.3,3-1.8,4.5c-0.2,0.8-0.3,1.6-0.6,2.3c0,0,0,0.1,0,0.1c0,0,0,0,0,0c-0.1,0.2-0.2,0.3-0.2,0.5
			c-0.1,0.1-0.2,0.3-0.2,0.4c0,0,0,0,0,0c-1.3,1.3-2.4,4.8-0.1,5.8c0.8,0.4,2,0.3,2.5-0.7c0.2-0.3,0.3-0.7,0.4-1
			c0-0.1,0.1-0.3,0.2-0.5c0.1,0,0.1-0.1,0.2-0.1c0.2-0.2,0.4-0.3,0.6-0.6c1-1.3,1.4-2.9,1.7-4.5c0.2-1.4,0.6-2.8,0.8-4.2
			c0.1-0.5,0.2-1,0.3-1.5c0-0.2,0.1-0.3,0.1-0.5c0-0.1,0-0.1,0-0.1c0,0,0,0,0,0C43.9,255.3,43.9,255.2,43.9,255.1z"/>
		<path class="st1" d="M42.8,253.4c0,0,0.1,0,0.1,0C43,253.4,42.9,253.4,42.8,253.4z"/>
	</g>
	<g>
		<path class="st1" d="M80.7,201C80.7,201,80.7,201,80.7,201C80.7,201,80.7,201,80.7,201C80.7,201,80.7,201,80.7,201
			C80.7,201.1,80.7,201.1,80.7,201C80.7,201.1,80.7,201.1,80.7,201z"/>
		<path class="st1" d="M92.4,206.9c-0.1-0.2-0.3-0.3-0.4-0.5c0,0-0.1-0.1-0.1-0.1c0,0,0,0,0,0c0.1-0.2,0.1-0.5,0.1-0.7
			c0.1-0.9,0.3-1.8-0.3-2.7c-0.3-0.5-0.8-0.9-1.3-1.1c-0.5-0.2-0.9,0-1.3-0.1c-0.8-0.1-1.4-0.7-2.2-0.8c-0.4,0-0.7,0.1-1.1,0.1
			c0.2-1.9-0.6-3.9-2.1-4.9c-2.3-1.5-5.5-0.8-7.4,1.1c-1.4,1.5-2.4,3.7-3,5.6c-0.5,1.7-1.7,5,0.3,6.2c0.5,0.3,1.2,0.2,1.7-0.2
			c0.6-0.7,1.1-1.8,1.5-2.6c0.5-1.1,1-2.2,1.8-3.2c0.1-0.1,0.2-0.3,0.3-0.4c0.1-0.2,0.3-0.4,0.4-0.5c0.2-0.2,0.3-0.3,0.5-0.5
			c0.1-0.1,0.2-0.2,0.3-0.3c0,0,0.1-0.1,0.2-0.2c0,0,0,0,0,0c0,0,0,0,0,0c0,0,0,0,0,0c0,0,0,0,0,0c0,0,0,0,0,0c0,0,0,0,0,0
			c0,0,0,0,0,0c0,0,0,0,0,0c0.1,0,0.2,0,0.1,0c0,0,0,0,0.1,0c0.1,0,0.2,0,0.4,0c0,0,0,0,0,0c0,0,0,0,0,0c0,0,0,0,0,0c0,0,0,0,0,0
			c0,0,0,0,0,0c0,0,0,0.1,0.1,0.1c0.1,0.1,0.4,0.6,0.6,0.8c0,0,0,0,0,0.1c0.2,0.6,0.5,1.1,1,1.4c0.9,0.6,1.6,0.2,2.4-0.2
			c0.3-0.2,0.9-0.2,1.3-0.2c0.5,0.1,0.8,0.5,1.2,0.8c0.5,0.4,1.1,0.6,1.8,0.6c0,0,0.1,0,0.1,0c-0.3,0.5-0.6,1-0.9,1.6
			c-0.4,0.9-0.2,1.8,0.1,2.7c0,0,0.1,0.2,0.1,0.3c0,0.1,0,0.2-0.1,0.3c0,0,0,0,0,0.1c0,0-0.3,0.7-0.2,0.6c-0.1,0.2-0.2,0.4-0.3,0.6
			c-0.1,0.2-0.3,0.5-0.4,0.7c0,0,0,0,0,0.1c-0.2,0.3-0.4,0.5-0.5,0.8c-0.6,0.9-0.4,2.2,0.2,3c0.7,0.9,1.7,1.2,2.7,1
			c2.4-0.5,3.3-3.8,3.5-6C93.6,209,93.2,207.9,92.4,206.9z"/>
		<path class="st1" d="M80.2,201.2C80.2,201.2,80.2,201.2,80.2,201.2C80.2,201.2,80.2,201.2,80.2,201.2
			C80.2,201.2,80.3,201.2,80.2,201.2C80.3,201.1,80.3,201.1,80.2,201.2C80.2,201.1,80.2,201.2,80.2,201.2z"/>
		<path class="st1" d="M80.8,201.1C80.8,201.1,80.7,201.1,80.8,201.1C80.8,201.2,80.8,201.2,80.8,201.1z"/>
	</g>
	<path class="st2" d="M139.2,63.1l-3.8,5.1l-2.1,5.1l-0.5,11.9v16.1v12l1.3,29.6l-0.8,8.8l2,1.6l5.6,0.9l1.3-0.3
		c-0.1-30.1-1.7-60.3-2.5-90.4L139.2,63.1z"/>
	<path class="st3" d="M146.1,138.8L145.2,99V70.2l-4.9-6.4l-0.5-0.3c0.9,30.1,2.4,60.3,2.5,90.4l2.8-0.7L146.1,138.8z"/>
	<path d="M148.7,223.8c-0.1-0.5-0.4-1-0.6-1.4c-0.1-0.3-0.5-0.2-0.6,0.1c-0.2,0.4,0,0.8,0.1,1.3c0.1,0.6,0,1.1-0.2,1.6
		c-0.2,0.6-0.1,1.2-0.1,1.9c0,0.6-0.3,1-0.5,1.6c-0.3,0.8-0.5,1.6-1.1,2.3c-0.3,0.3-0.6,0.6-1,0.7c-0.2,0.1-0.4,0.1-0.6,0.2
		c-0.1,0-0.3,0.2-0.5,0.2c0,0,0,0.1,0,0.1c0.1,0,0.3,0.1,0.4,0.1c0.2,0,0.5,0,0.7-0.1c0.4-0.1,0.8-0.3,1.2-0.5
		c0.8-0.6,1.3-1.4,1.7-2.3c0.3-0.5,0.6-1.1,0.8-1.6c0.2-0.7,0-1.5,0.2-2.2C148.7,225.1,148.8,224.5,148.7,223.8z"/>
	<path d="M147.6,207.1c0-1.3-0.3-2.5-0.4-3.8c-0.1-1.1,0.2-2.3,0-3.4c-0.1-0.5-0.3-0.9-0.3-1.4c-0.1-0.6,0-1.2-0.1-1.7
		c0-0.4-0.7-0.6-0.7-0.1c-0.2,1.1-0.2,2,0.1,3.1c0.3,1.1,0,2.4,0,3.5c0.2,2.6,1,5,1.1,7.6c0,0.1,0.2,0.1,0.2,0
		C147.6,209.6,147.7,208.3,147.6,207.1z"/>
	<path d="M184.1,244.6c-0.1-0.4-0.6-0.4-0.8-0.1c-0.3,0.5-0.1,0.8,0.1,1.3c0.1,0.4-0.2,0.9-0.4,1.2c-0.3,0.6-0.6,1.1-1,1.7
		c-0.3,0.6-0.6,1.2-1,1.8c-0.7,0.9-1.5,1.6-1.6,2.7c-0.1,0.7,0,1.4,0.1,2c0.1,0.6,0.5,1.1,0.6,1.7c0.1,0.3,0.6,0.4,0.7,0.1
		c0.2-0.6,0.1-1,0-1.5c-0.1-0.6,0-1.4,0.2-2c0.3-1,1.2-1.7,1.7-2.5c0.7-1.1,1.3-2.3,1.7-3.6c0.1-0.4,0.3-0.9,0.2-1.4
		C184.6,245.4,184.2,245.1,184.1,244.6z"/>
	<path d="M249.9,234.9c-0.1-1-1-1.7-1.7-2.3c-0.3-0.3-0.9-0.7-1-1.1c-0.1-0.2,0-0.5,0-0.8c0-0.4-0.1-0.9-0.3-1.3
		c-0.5-1.3-1.1-2.6-2.2-3.6c-0.9-0.9-1.9-2-3-2.4c-0.6-0.2-1.2-0.2-1.8-0.2c-0.8,0-1.6,0-2.4,0.1c-1.2,0.2-2.4,0.7-3.3,1.4
		c-0.5,0.4-0.9,0.8-1.3,1.3c-0.2,0.3-0.3,1-0.6,1.2c-0.2,0.1-0.6,0-0.8,0c-0.4,0-0.8,0-1.1,0c-0.8,0.1-1.5,0.3-2.2,0.7
		c-0.3,0.2-0.6,0.4-0.9,0.7c-0.3,0.3-0.4,0.6-0.7,0.9c-0.4,0.4-0.9,0.8-1.3,1.2c-0.7,0.8-1.7,2-1.1,3.2c0.3,0.6,1,0.3,1.1-0.3
		c0-0.3,0.4-0.7,0.6-0.9c0.3-0.4,0.6-0.7,0.9-1c0.3-0.3,0.7-0.5,1.1-0.9c0.5-0.5,0.8-0.9,1.4-1.2c0.6-0.3,1.1-0.4,1.8-0.4
		c0.6,0,1.3,0.1,1.9-0.1c1-0.3,1.1-1.3,1.7-2.1c1.4-1.9,4-2.1,6.1-1.8c0.9,0.1,1.7,1,2.3,1.7c0.9,0.9,1.4,1.8,2,3
		c0.3,0.6,0.3,1.2,0.5,1.9c0.2,0.6,0.6,1,1.1,1.4c0.8,0.7,1.9,1.1,2.3,2.2c0.1,0.2,0.3,0.4,0.5,0.4c0.1,0,0.2,0,0.3,0
		C250.1,235.8,250.3,235.1,249.9,234.9z"/>
	<path d="M239.4,253.1c-0.5,0.4-1.2,0.2-1.8,0.1c-0.6-0.1-1.2,0-1.9,0c-0.5,0-0.9-0.7-1.3-1c-0.5-0.5-1-0.9-1.7-1
		c-0.8-0.1-1.5,0.2-2.2,0.4c-0.8,0.2-1.6,0.6-2.4,0.8c-0.8,0.2-1.2-0.4-1.7-1c-0.6-0.6-1.3-1.1-1.9-1.6c-0.3-0.2-0.6-0.5-0.9-0.8
		c-0.3-0.3-0.5-0.7-0.8-0.9c-0.3-0.2-0.6-0.3-1-0.5c-0.4-0.2-0.7-0.4-1.1-0.7c-1.4-0.9-3-1.5-4.6-1.6c-1.8-0.1-3.6-0.6-5.4-0.3
		c-1.6,0.2-3.2,0.6-4.7,1.2c-0.9,0.4-1.7,0.9-2.5,1.4c-0.8,0.5-1.6,1.1-2.2,1.8c-0.7,0.8-1.3,1.6-1.9,2.5c-0.2,0.4-0.5,0.6-0.7,1
		c-0.1,0.2-0.2,0.4-0.2,0.6c-0.2,0-0.3,0-0.5,0c-0.3,0.1-0.6,0.1-0.9,0.1c-0.6,0.1-1.2,0.2-1.8,0.2c-1.4,0.1-2.8,0-4.2,0.2
		c-0.5,0.1-0.5,1,0,1.1c1.4,0.3,2.8,0.2,4.2,0.2c0.6,0,1.3-0.1,1.9-0.2c0.3,0,0.6-0.1,0.9-0.1c0.4,0,0.7,0,1-0.3
		c0.1,0,0.1,0,0.2-0.1c0.4-0.2,0.4-0.4,0.7-0.7c0.2-0.3,0.5-0.5,0.7-0.7c0.6-0.7,1.2-1.4,1.8-2.1c1.1-1.3,2.5-2.2,4-2.9
		c1.4-0.7,3.1-1.1,4.7-1.3c0.8-0.1,1.7,0,2.5,0.1c0.9,0.1,1.8,0.2,2.7,0.2c0.8,0,1.6,0.2,2.3,0.6c0.8,0.3,1.4,0.9,2.2,1.3
		c0.3,0.1,0.7,0.2,1,0.4c0.3,0.2,0.4,0.5,0.7,0.8c0.5,0.6,1.3,1.1,1.9,1.5c0.3,0.2,0.7,0.3,1,0.6c0.3,0.2,0.5,0.5,0.7,0.7
		c0.6,0.5,1.3,0.8,2.1,0.6c0.8-0.2,1.5-0.6,2.2-0.9c0.7-0.3,1.7-0.9,2.5-0.6c0.7,0.2,1.1,1.1,1.6,1.6c0.5,0.6,1.2,0.6,1.9,0.5
		c1.1-0.1,2.7,0.3,3.5-0.7C240.1,253.4,239.8,252.8,239.4,253.1z"/>
	<path d="M265.9,265.1c-0.2-0.6-0.5-1.1-0.6-1.7c-0.1-0.6-0.1-1.3-0.3-1.9c-0.3-1.2-1-2.3-1.5-3.4c-0.6-1.3-1.1-2.5-1.8-3.7
		c-1.3-2.2-3.1-4.1-4.9-5.9c-0.6-0.6-1.2-1.2-1.9-1.7c0,0,0-0.1,0-0.1c0.1,0,0.1-0.1,0.2-0.1c0.1-0.1,0.3-0.3,0.4-0.5
		c0.3-0.4,0.6-0.9,0.8-1.4c0.1-0.2,0-0.4,0-0.6c0,0,0,0,0,0c0-0.1,0.1-0.1,0.1-0.2c0.3-0.6,0.3-1.4,0.4-2.1c0.3-1.3,0.5-2.5,0.5-3.9
		c0-1.4-0.1-2.7-0.2-4c-0.1-0.6-0.2-1.2-0.3-1.7c-0.1-0.5,0-1.1,0-1.7c-0.1-1.1-0.4-2.2-0.7-3.3c-0.7-2.3-1.8-4.2-3.2-6.1
		c-1.5-1.9-3-3.8-4.8-5.4c-0.9-0.9-1.9-1.1-3-1.5c-1.2-0.4-2.4-0.6-3.6-0.8c-1.2-0.2-2.5-0.2-3.8-0.1c-0.6,0-1.2,0.2-1.7,0.2
		c-0.6,0.1-1.3,0.1-1.9,0.1c-0.6,0.1-1.1,0.2-1.6,0.4c-0.6,0.2-1.2,0.3-1.7,0.4c-0.5,0.2-1,0.4-1.5,0.6c-0.2,0.1-0.4,0.1-0.5,0.2
		c-0.1-0.3-0.3-0.6-0.5-0.8c-0.7-1.2-1.2-2.4-2.3-3.3c-1-0.9-2.3-1.6-3.5-2.2c-1.3-0.6-2.7-1.2-4.2-1.4c-1.5-0.2-2.9-0.1-4.3,0.5
		c-1.2,0.5-2.4,1-3.4,1.8c-1,0.8-1.8,2-2.4,3.1c-0.7,1.3-1,2.6-1.1,4.1c0,0.8-0.1,1.5,0,2.3c0.1,0.8,0.3,1.4,0.5,2.1
		c0.1,0.4,0,0.9,0.1,1.3c0.1,0.3,0.2,0.6,0.3,0.9c0.1,0.2,0.1,0.3,0.2,0.5c-0.8,0.2-1.6,0.5-2.4,0.9c-1.8,1-3.7,2.5-4.7,4.3
		c-0.3,0.4-0.4,0.9-0.7,1.3c-0.3,0.5-0.6,0.9-0.8,1.4c-0.1,0.3-0.2,0.5-0.3,0.8c-0.4-0.2-0.9-0.3-1.3-0.6c-0.4-0.2-0.9-0.5-1.3-0.7
		c-0.9-0.4-1.9-0.5-2.9-0.3c-1,0.2-2,0.4-2.9,0.9c-0.9,0.4-1.6,1.2-2.3,1.8c-0.8,0.8-1.4,1.6-2,2.6c-0.6,0.9-1.5,1.8-2.5,2
		c-1,0.2-2.2,0.1-3.2-0.1c-0.4-0.1-0.9-0.2-1.3-0.3c-0.1,0-0.1-0.1-0.2-0.1c0.1-0.1,0.2-0.3,0.2-0.4c0.4-0.8,0.4-1.5,0.5-2.4
		c0-0.9,0.1-1.7-0.3-2.5c-0.3-0.5-0.6-1.2-1.2-1.5c-0.4-0.2-0.8-0.1-1.2,0c-0.5,0.2-0.8,0.2-1.3,0.1c-0.5-0.1-1-0.1-1.4-0.3
		c-0.1-0.1-0.3-0.1-0.3-0.2c0-0.1,0.1-0.4,0.1-0.5c0-0.5,0-0.9-0.2-1.3c-0.1-0.5,0-1,0-1.6c0-0.5-0.2-1-0.3-1.5c0-0.1,0-0.3-0.1-0.4
		c0.3-1.4,0.4-2.8,0.3-4.3c-0.1-0.8-0.2-1.6-0.3-2.4c-0.1-0.8-0.2-1.6-0.4-2.4c0-0.1-0.1-0.2-0.2-0.2c0-0.3,0-0.7,0-1
		c0-4.5-0.4-9.1-0.4-13.6c-0.1-4.4-0.2-8.9-0.1-13.3c0.1-4.5,0.3-9.1,0.3-13.6c0-2.5,0-5.1,0.1-7.6c0-1.2,0-2.4,0-3.7
		c0-1.3,0.1-2.6-0.2-3.9c-0.1-0.4-0.4-0.5-0.7-0.5c0,0,0,0,0-0.1c-0.1-0.5-0.8-0.4-0.9,0c-0.2,0.6-0.4,1.2-0.4,1.9
		c-0.1,0.6,0,1.2-0.1,1.8c-0.1,1.4-0.2,2.8-0.3,4.2c-0.1,1.4-0.2,2.7-0.1,4.1c0,0.6,0,1.2,0,1.8c0,0.6-0.2,1.2-0.1,1.7
		c0,0.1,0.1,0.1,0.1,0c0-0.7,0.4-1.3,0.6-1.9c0.1-0.5,0.2-1,0.3-1.5c0.1-0.5,0.1-1,0.2-1.5c0,1.1,0,2.3,0,3.4
		c0,4.5,0.1,9.1,0.3,13.6c0.1,4.4,0,8.9,0,13.3c0,2.3-0.1,4.5-0.2,6.8c-0.1,2.3-0.3,4.5-0.3,6.8c0,2.5,0,5.1,0.1,7.7
		c0,1.2,0.1,2.5,0.2,3.7c0.1,1,0.2,2.1,0.4,3.1c0.1,0.9,0.2,1.7,0.2,2.6c0,0.8,0.1,1.6,0.2,2.4c0,0.5-0.4,0.8-0.1,1.4
		c0.2,0.3,0.6,0.2,0.7-0.1c0.1-0.3,0.2-0.3,0.4-0.5c0.2-0.3,0.2-0.6,0.2-0.9c0.1-0.5,0.1-1.1,0.1-1.6c0.1,0.2,0.4,0.3,0.7,0.3
		c0.7,0.1,1.2,0.1,1.8,0.5c0.5,0.3,0.8,0.4,1.4,0.4c0.4,0,0.5,0.1,0.7,0.5c0.2,0.3,0.4,0.6,0.4,1c0.1,0.6,0,1.3,0,1.9
		c0,0.5-0.1,0.9-0.3,1.3c-0.4,0.7-0.9,1.5-1.7,1.9c-0.2,0.1-0.2,0.4-0.1,0.5c0.8,0.7,1.8-0.2,2.4-1c0.1,0.1,0.2,0.2,0.3,0.3
		c0.3,0.3,0.7,0.5,1.1,0.7c1,0.5,2.2,0.6,3.3,0.5c1,0,1.8-0.4,2.7-1c0.9-0.7,1.4-1.6,2-2.5c0.6-1.1,1.4-2,2.3-2.8
		c0.7-0.7,1.6-1,2.5-1.2c1.3-0.3,2.4-0.4,3.6,0.3c0.7,0.4,1.5,1,2.3,1.1c-0.1,0.4-0.2,0.7-0.2,1.1c-0.1,1.1,0.3,2,0.6,3
		c0.1,0.4,0.2,0.8,0.4,1.2c0.2,0.4,0.5,0.5,0.9,0.7c0.4,0.2,0.9-0.3,0.5-0.7c-0.4-0.4-0.3-1.5-0.4-2.1c-0.1-0.9-0.3-1.6-0.1-2.5
		c0.2-0.8,0.6-1.6,1-2.4c0.4-0.7,0.7-1.5,1.2-2.2c1-1.4,2.4-2.5,3.7-3.6c0.7-0.5,1.4-1,2.1-1.3c0.8-0.3,1.8-0.2,2.6-0.5
		c0.3-0.1,0.3-0.5,0-0.6c-0.6-0.2-1.3-0.2-2-0.1c0-0.1-0.1-0.3-0.1-0.5c-0.2-0.6-0.1-1.1-0.1-1.8c0-0.6-0.2-1.1-0.3-1.6
		c-0.1-0.6,0-1.2,0-1.8c0.1-1.2,0.1-2.4,0.5-3.5c0.4-1.1,1.2-2,1.9-2.9c0.7-0.8,1.5-1.2,2.4-1.6c1.2-0.5,2.2-0.9,3.5-0.9
		c2.4,0.1,4.6,1.3,6.7,2.5c1.1,0.7,2,1.5,2.7,2.6c0.3,0.4,0.6,0.8,0.9,1.2c-0.4,0.3-0.8,0.6-1.3,0.8c-0.6,0.3-1.1,0.5-1.7,0.9
		c-1.1,0.8-2.1,1.9-3.1,2.9c-1.9,1.9-3.8,4-3.7,6.9c0,1.2,1.7,1.2,1.8,0c0.1-2.1,1.8-3.8,3.2-5.2c0.8-0.8,1.7-1.6,2.6-2.4
		c0.8-0.7,1.7-0.9,2.6-1.5c0.2-0.1,0.4-0.3,0.6-0.4c0.2,0.5,0.9,0.4,1-0.1c0-0.2,0-0.3,0-0.5c0.4-0.1,0.8-0.3,1.2-0.4
		c0.9-0.4,1.9-0.6,2.8-0.9c1-0.3,2.1-0.3,3.2-0.4c1.1-0.2,2.2-0.2,3.3-0.2c1.1,0,2.2,0.3,3.2,0.5c0.5,0.1,1,0.3,1.5,0.5
		c0.5,0.2,1,0.3,1.4,0.5c0.8,0.5,1.5,1.4,2.2,2.1c0.8,0.8,1.5,1.7,2.2,2.6c1.3,1.6,2.5,3.2,3.3,5.2c0.4,1,0.6,1.9,0.8,2.9
		c0.1,0.5,0.2,1,0.2,1.4c0,0.6,0,1.1,0.1,1.6c0.4,1.3,0.5,2.6,0.5,3.9c0.1,1.3,0.1,2.6-0.2,3.9c-0.1,0.7-0.2,1.4-0.3,2.1
		c-0.1,0.5-0.4,0.9-0.4,1.5c0,0.5-0.2,0.8-0.4,1.3c-0.1,0.3-0.3,0.5-0.4,0.8c-1-0.5-2-1.2-3.1-1.5c-0.3-0.1-0.6,0-0.9,0
		c-0.3,0-0.6-0.2-1-0.2c-0.7-0.1-1.3,0-2,0c-0.7,0-1.5,0.1-2.2,0c-0.7-0.1-1.3-0.3-2-0.1c-0.4,0.1-0.4,0.7,0,0.8
		c1,0.4,2.1,0.6,3.2,0.6c0.6,0,1.1,0,1.7,0c0.3,0,0.6,0,0.9,0.1c0.3,0.1,0.5,0.2,0.7,0.3c0.5,0.2,1,0.1,1.5,0.4
		c0.5,0.3,1,0.6,1.5,0.9c0.9,0.6,1.8,1.1,2.6,1.9c1.6,1.5,3.3,3.2,4.6,5.1c1.4,2,2.2,4.3,3.4,6.4c0.3,0.6,0.5,1,0.6,1.7
		c0.1,0.6,0.1,1.3,0.3,1.9c0.2,0.6,0.5,1.2,0.7,1.8c0.1,0.2,0.2,0.5,0.2,0.8c0,0.3-0.1,0.6-0.1,0.9c0,0.7,0.7,0.8,1.2,0.4
		c0,0,0,0,0,0C266.6,267.5,266.3,266,265.9,265.1z"/>
	<path d="M200.2,220.3c-0.6-1.6-2.4-3.2-4.2-2.6c-0.6,0.2-1.1,0.7-1.6,1.2c-0.8-0.2-1.4,0.7-1.7,1.4c-0.2,0.4-0.3,0.9-0.2,1.4
		c0.1,0.4,0.3,0.8,0.5,1.2c1.1,1.6,3,2.7,4.9,1.8C199.3,223.9,200.8,222.1,200.2,220.3z M198.6,221.4c0,0.1,0,0.1,0,0.2
		c-0.1,0.2-0.2,0.4-0.3,0.5c-0.2,0.2-0.4,0.4-0.6,0.5c-0.1,0.1-0.2,0.2-0.4,0.3c-0.1,0.1-0.2,0.1-0.2,0.2c0,0-0.3,0.1-0.1,0.1
		c-0.1,0-0.1,0-0.2,0.1c0,0-0.1,0-0.2,0c-0.2,0-0.3,0-0.5,0c0,0-0.1,0-0.1,0c-0.1,0-0.1,0-0.2-0.1c-0.1,0-0.2-0.1-0.2-0.1
		c0,0-0.1,0-0.1,0c-0.3-0.2-0.6-0.3-0.8-0.6c-0.1-0.1-0.2-0.2-0.2-0.2c0.1-0.2,0.1-0.3,0.1-0.5c0,0.2,0.1-0.2,0.1-0.2c0,0,0,0,0,0
		c0,0,0,0,0,0c0-0.1,0.1-0.1,0.1-0.2c0-0.1,0.1-0.1,0.1-0.1c0,0,0.1-0.1,0.1-0.1c0.2-0.2,0.4-0.5,0.6-0.7c0.2-0.2,0.4-0.5,0.6-0.7
		c0,0,0.1-0.1,0.1-0.1c0,0,0.1-0.1,0.1-0.1c-0.2,0.1,0,0,0.1,0c0,0,0.1,0,0.1,0c-0.2,0,0,0,0.1,0c0.1,0,0.1,0,0.2,0c0,0,0,0,0,0
		c0.1,0,0.2,0.1,0.4,0.1c0.1,0,0.1,0.1,0.2,0.1c0.1,0,0.1,0.1,0.2,0.1c0,0-0.1-0.1,0,0c0.1,0.1,0.2,0.2,0.3,0.3
		c0.1,0.1,0.1,0.1,0.2,0.2c0,0,0.1,0.1,0.1,0.1c0,0,0,0,0,0c0.1,0.1,0.2,0.3,0.2,0.4c0,0,0,0,0,0c0,0.1,0,0.1,0.1,0.2c0,0,0,0,0,0
		c0,0,0,0,0,0c0,0.1,0,0.1,0,0.2C198.6,221.3,198.6,221.4,198.6,221.4z"/>
	<path d="M268.9,221.1c-0.1-0.6-0.4-1.1-0.8-1.5c-0.4-0.4-0.9-0.8-1.4-0.9c-0.6-0.2-1.2-0.1-1.8-0.2c-1.1,0-2.4-0.1-3.3,0.6
		c0,0-0.1,0-0.1,0c-0.2,0-0.4,0-0.6,0.1c-0.4,0.1-0.8,0.5-1,0.9c-0.4,0.8-0.5,1.9-0.3,2.8c0.1,1.1,0.9,1.9,1.7,2.6
		c0.9,0.7,2,1.3,3.1,1.4c1.2,0.1,2-0.6,2.8-1.3c0.4-0.4,0.9-0.8,1.2-1.3c0.3-0.4,0.4-1,0.5-1.5C269,222.2,269,221.6,268.9,221.1z
		 M267.2,221.8c-0.1,0.8-0.2,1.3-0.7,1.8c-0.5,0.5-1,1.2-1.7,1.3c-0.6,0.1-1.3-0.2-1.8-0.5c-0.7-0.4-1.3-0.9-1.7-1.6c0,0,0,0,0-0.1
		c0,0,0,0,0,0c0.4,0.2,0.9,0.1,1.1-0.3c0.1-0.2,0.2-0.4,0.3-0.7c0-0.1,0-0.2,0-0.3c0,0,0-0.2,0,0c0-0.1,0-0.2,0-0.3c0,0,0-0.1,0-0.1
		c0,0,0,0,0,0c0-0.1,0-0.1,0-0.2c0-0.1,0.1-0.3,0-0.1c0,0,0.1-0.1,0.1-0.1c0,0,0,0,0,0c0,0,0,0,0,0c0,0,0,0,0,0c0,0,0.1,0,0.1,0
		c0.1,0,0.1-0.1,0.1,0c0,0,0,0,0.1,0c0,0,0,0,0,0c0.3,0,0.5,0,0.8,0c0.5,0,1,0,1.5,0c0.2,0,0.5,0,0.7,0c0.1,0,0.2,0,0.3,0.1
		c0.2,0.1,0.4,0.3,0.5,0.5c0.1,0.2,0.1,0.2,0.2,0.4c0,0.1,0,0.1,0,0.1c0,0,0,0,0,0.1C267.2,221.7,267.1,222,267.2,221.8z"/>
	<path d="M142.1,247.2c0.1-0.1,0-0.4-0.1-0.4c-0.1-0.1-0.2-0.1-0.3-0.1c-0.1,0-0.2,0.1-0.3,0.2c-0.2,0.4-0.2,0.8-0.2,1.2
		c0,0.2,0.1,0.4,0.1,0.6c0,0.1,0,0.2,0,0.3c0,0,0,0,0,0c-0.2-0.1-0.5-0.2-0.8-0.2c-0.6-0.1-1.3,0-1.9,0.2c-1.2,0.3-2.4,0.9-3.3,1.7
		c-0.4,0.3-0.8,0.8-1,1.2c-0.3,0.5-0.4,1-0.6,1.5c-0.1,0.3-0.2,0.5-0.3,0.8c0,0.2,0,0.4,0.1,0.6c0,0.1,0,0.1,0,0.1
		c-0.2,0.2-0.3,0.6-0.2,0.9c0,0.1,0,0.1,0,0.1c-0.2,0.1-0.5,0.1-0.7,0.2c-0.3,0.1-0.4,0.3-0.4,0.6c0,0.1,0,0.2,0,0.3
		c0,0.6,0.7,0.7,1,0.3c0.5,0,1-0.1,1.5-0.4c0.2-0.1,0.4-0.4,0.4-0.7c0-0.2,0-0.4-0.1-0.6c0,0,0,0,0,0c0.2-0.2,0.3-0.6,0.3-0.8
		c0-0.2-0.1-0.4,0-0.5c0,0.1,0.1-0.2,0.2-0.2c0.1-0.3,0.2-0.6,0.4-0.8c0.5-1,1.4-1.6,2.4-2c0.6-0.3,1.3-0.5,1.9-0.6
		c0.5-0.1,1.3,0,1.7-0.5c0.3-0.3,0.4-0.7,0.4-1.2c0-0.6-0.2-1.2-0.1-1.8C142,247.3,142.1,247.2,142.1,247.2z"/>
	<path d="M120.7,260.1c-1.2-0.4-2.5-0.4-3.8-0.8c-0.6-0.2-1.2-0.3-1.9-0.2c-0.3,0.1-0.6,0.2-0.9,0.2c-0.3,0.1-0.6,0-0.9-0.1
		c-1.3-0.2-2.7-0.5-4-0.5c-0.4,0-0.8,0.1-1.3,0.1c-0.2,0-0.4,0-0.6,0c0,0,0,0,0,0c0.2-0.4,0.3-0.9,0-1.2c-0.5-0.5-0.9-1.3-1.4-1.9
		c-0.5-0.7-1.1-1.4-1.7-2c-1.2-1.1-2.7-2.2-4.2-2.7c-0.7-0.3-1.4-0.3-2,0c-0.8,0.4-1.5,0.5-2.4,0.5c0,0-0.1,0-0.1,0
		c0,0-0.1-0.1-0.1-0.2c-0.1-0.3-0.3-0.7-0.4-1c-0.3-0.9-0.7-1.8-1.3-2.5c-1-1.2-2.3-1.8-3.7-2.3c-0.6-0.2-1.2-0.4-1.8-0.7
		c-0.8-0.4-1.6-0.8-2.5-0.9c-0.4,0-0.8,0-1.1,0c-0.3,0-0.6-0.2-0.9-0.2c-0.7-0.1-1.5,0.3-2.2,0.3c-1.6,0.1-3.1,0.4-4.3,1.5
		c-0.7,0.6-1.3,1.3-1.9,2c-0.3,0.4-0.7,0.8-0.9,1.3c-0.1,0.1-0.1,0.3-0.2,0.4c-0.1,0.3-0.3,0.4-0.4,0.7c-0.3,0.4-0.3,0.8-0.5,1.2
		c-0.2,0.4-0.5,0.8-0.7,1.2c-0.4,0.8-0.8,1.5-0.8,2.4c0,0.7,0.9,0.7,1.1,0.2c0.2-0.6,0.8-1.2,1.2-1.7c0.2-0.3,0.4-0.7,0.7-1
		c0.1-0.2,0.3-0.3,0.3-0.5c0.1-0.2,0.1-0.5,0.2-0.6c0.1-0.1,0.3-0.2,0.3-0.3c0.2-0.2,0.2-0.4,0.3-0.6c0.1-0.3,0.2-0.5,0.4-0.8
		c0.5-0.6,1.1-1.2,1.7-1.8c1.1-1.1,2.3-1.4,3.8-1.4c0.7,0,1.3-0.2,1.9-0.3c-0.3,0.1-0.2,0,0,0.1c0.1,0,0.3,0.1,0.4,0.1
		c0.5,0.1,0.9,0,1.4,0.1c0.7,0,1.3,0.4,1.9,0.7c0.6,0.3,1.3,0.5,2,0.8c1.2,0.5,2.4,1,3.1,2.1c0.7,1.2,0.9,3,2.4,3.5
		c0.6,0.2,1.2,0.2,1.8,0.1c0.4,0,0.8-0.1,1.2-0.2c0.4-0.1,0.8-0.4,1.1-0.5c0.6-0.1,1.6,0.6,2.1,0.9c0.7,0.5,1.5,1,2.1,1.6
		c0.6,0.6,1.1,1.3,1.6,2c0.5,0.7,0.9,1.5,1.6,2c0,0,0.1,0,0.1,0.1c0,0.1,0,0.1,0,0.2c0.2,1.1,1.4,1.2,2.2,1.2c1.4,0,2.6,0.1,4,0.4
		c0.7,0.1,1.4,0.3,2.1,0.2c0.7-0.1,1.1-0.3,1.8-0.1c1.5,0.4,2.9,0,4.3-0.4C121,260.7,121,260.2,120.7,260.1z"/>
	<path d="M80,196c-0.6-0.2-1.1-0.5-1.8-0.6c-0.5-0.3-1.1-0.4-1.6,0c-0.6,0.1-1.1,0.3-1.6,0.6c-0.7,0.5-1.1,1.1-1.5,1.8
		c-0.8,1.4-1.5,3-1.9,4.7c-0.2,0.7,0.1,1.5-0.1,2.2c-0.1,0.3-0.2,0.6-0.3,0.9c0,0.4,0,0.8,0,1.3c0,0.8,0,1.7,0.3,2.5
		c0.1,0.3,0.3,0.5,0.3,0.8c0.1,0.4,0.1,0.7,0.2,1c-0.7-0.4-1.6-0.5-2.4-0.5c-1-0.1-2,0-2.9,0.3c-2.3,0.8-4.7,2-6.4,3.8
		c-0.4,0.4-0.8,0.9-1.2,1.3c-0.4,0.4-0.9,0.9-1.3,1.4c-0.7,1-1.2,2.2-1.6,3.3c-0.1,0.2-0.1,0.4-0.2,0.6c-1.2-0.6-2.5-1.3-3.8-1.1
		c-1.4,0.2-2.7,1-3.9,1.6c-1.2,0.5-2.4,1.3-3.2,2.4c-0.2,0.3-0.4,0.6-0.8,0.9c-0.3,0.2-0.5,0.4-0.8,0.6c-0.2,0.2-0.3,0.4-0.4,0.7
		c-0.2,0.5-0.4,0.7-0.7,1.2c-0.9,1.3-1.4,2.9-1.9,4.4c-0.6,1.6-0.9,3.2-1.1,4.9c-0.4,3.1-0.1,6.6,1,9.5c0.3,0.9,0.8,1.7,1.2,2.5
		c0.2,0.4,0.4,0.8,0.7,1.2c-1.8,0.7-2.6,3.2-3.5,4.8c-0.8,1.4-1.2,2.9-1.6,4.5c-0.4,1.6-0.8,3.2-0.3,4.8c0.2,0.6,1,0.6,1.1,0
		c0.2-0.7,0.1-1.4,0.3-2c0.2-0.6,0.4-1.3,0.5-1.9c0.4-1.3,0.7-2.7,1.4-3.9c0.5-0.9,0.9-1.7,1.4-2.6c0.2-0.4,0.5-0.8,0.7-1.2
		c0.1-0.2,0.3-0.3,0.4-0.5c0.1,0,0.2-0.1,0.2-0.1c0.2,0,0.4-0.1,0.6-0.2c0.8,0.7,2,1.3,3,0.7c0.5-0.3,0.3-1-0.1-1.1
		c-1-0.3-1.8-1.1-2.3-2c-0.3-0.6-0.6-1.2-0.9-1.8c-0.3-0.6-0.6-1.3-0.9-1.9c-0.9-2.6-1.1-5.5-0.9-8.2c0.1-1.5,0.4-2.9,0.9-4.3
		c0.4-1.3,0.7-2.7,1.2-4c0.2-0.6,0.5-1.1,0.8-1.7c0.1-0.3,0.1-0.6,0.3-0.8c0.2-0.3,0.5-0.4,0.7-0.6c0.4-0.4,0.7-0.9,1.1-1.3
		c0.5-0.5,1.1-0.8,1.7-1.1c1.2-0.6,2.6-1.3,3.9-1.7c0.7-0.2,1.3-0.1,2,0.2c0.6,0.3,1.1,0.6,1.7,0.6c-0.1,0.5-0.3,1-0.4,1.5
		c0,0.6,0,1.2,0.1,1.7c0.1,0.5,0.1,1,0.5,1.4c0.1,0.2,0.5,0.2,0.6,0c0.6-0.7,0.3-1.9,0.4-2.7c0.1-0.5,0.3-1,0.5-1.5
		c0.2-0.5,0.2-1,0.4-1.6c0.2-0.5,0.4-1,0.6-1.5c0.2-0.5,0.4-0.9,0.7-1.3c0.7-0.9,1.5-1.6,2.2-2.4c1.5-1.7,3.5-2.9,5.5-3.9
		c1.5-0.8,3.4-0.9,5-0.3c0.5,0.2,0.8-0.5,0.6-0.9c0.1,0,0.2-0.1,0.2-0.1c0.3-0.5,0.4-1.3,0.3-1.9c-0.1-0.3-0.2-0.5-0.2-0.7
		c0-0.4,0-0.9,0-1.3c0-0.7,0-1.3,0.3-2c0.3-0.7,0.2-1.5,0.3-2.2c0.2-1.4,1-2.9,1.7-4.1c0.4-0.6,0.7-1.3,1.4-1.6
		c0.3-0.1,0.6-0.2,0.9-0.2c0.1,0,0.2-0.1,0.3-0.1c0.2,0.1,0.4,0.1,0.6,0.1c0.5,0.1,1.1,0.1,1.6,0.2C80.7,197.4,80.7,196.3,80,196z"
		/>
	<path d="M54.1,254.1C54.1,254.1,54.1,254.1,54.1,254.1C54,254.1,54,254.1,54.1,254.1c-0.1-0.1-0.2-0.1-0.3-0.2
		c-0.1-0.1-0.3-0.1-0.5-0.1c-0.3,0-0.6,0-1,0c-0.1,0-1,0.2-1.3,0.2c0,0,0,0,0,0c0,0-0.1-0.1-0.1-0.1c-0.1-0.1-0.3-0.2-0.5-0.3
		c-0.3-0.1-0.6,0-0.9,0c-0.3,0-0.6-0.2-0.8-0.3c-0.3-0.1-0.6-0.1-0.9-0.1c-0.4,0-0.7,0.5-0.5,0.8c0.4,0.6,0.9,1,1.6,1.2
		c0.3,0.1,0.7,0.1,1,0.1c0,0,0,0,0,0c0.1,0.1,0.3,0.2,0.5,0.3c0.6,0.2,1.3,0,1.9-0.2c0.3-0.1,0.6-0.2,0.9-0.3c0.2,0,0.3-0.1,0.4-0.2
		c0.1,0,0.2,0,0.2-0.1c0,0,0.1-0.1,0.1-0.1c0-0.1,0-0.1,0,0C54.4,254.6,54.4,254.2,54.1,254.1z"/>
	<path d="M88.3,233.7c-0.4-0.1-0.8,0-1.2-0.1c-0.3-0.1-0.5-0.2-0.8-0.3c-0.2-0.9-0.7-1.5-1.4-2.1c-0.4-0.3-0.7-0.8-1.2-0.9
		c-0.2-0.1-0.5,0-0.7-0.1c-0.3-0.1-0.5-0.5-0.6-0.7c-0.6-0.9-1.7-1.5-2.8-1.8c-0.4-0.1-0.9-0.2-1.3-0.4c-0.5-0.3-0.5-0.8-0.6-1.3
		c-0.3-1.2-0.7-2.3-1.7-3.1c-0.4-0.3-0.9-0.5-1.3-0.7c-0.5-0.3-1-0.6-1.6-0.7c-2.1-0.6-4.4-0.6-6,1.1c-1,1-2,2.2-2.6,3.6
		c-0.1,0.3-0.2,0.5-0.3,0.8c-0.1,0.2-0.1,0.6-0.2,0.7c-0.3,0.4-1.3,0.1-1.8,0.3c0,0,0,0,0,0c-0.5,0.2-0.8,1-0.2,1.3
		c0.9,0.4,2.3,0.5,3.1-0.3c0.7-0.7,0.8-1.8,1.3-2.6c0.6-1,1.4-2.1,2.4-2.8c0.7-0.5,1.7-0.6,2.5-0.4c0.5,0.1,1,0.1,1.4,0.3
		c0.5,0.2,0.9,0.5,1.4,0.7c1,0.5,1.4,1.2,1.8,2.3c0.3,1,0.8,1.8,1.8,2.1c0.4,0.1,0.8,0.1,1.2,0.1c0.6,0.1,1.2,0.4,1.8,0.7
		c0.6,0.3,0.9,0.8,1.2,1.4c0.3,0.5,0.6,0.7,1.1,0.8c0.5,0.1,1,0.7,1.4,1.1c0.4,0.4,0.5,0.9,0.6,1.4c0,0.2,0.3,0.4,0.5,0.5
		c0.5,0.1,0.9,0.3,1.4,0.4c0.5,0.1,1,0,1.4-0.1C89,234.7,88.8,233.8,88.3,233.7z"/>
	<path d="M154.7,223.6c-0.2-1-0.2-1.9,0-2.9c0.2-0.9-0.1-1.6-0.2-2.5c-0.1-1,0.1-2.1,0.1-3.1c0-0.6-0.1-1.2-0.1-1.8
		c0-0.6,0.2-1,0.3-1.6c0.3-1.2-0.3-2.2-0.4-3.4c0-0.6-0.1-1.1-0.1-1.7c0-0.8,0-1.5,0-2.3c0-1.2,0-2.4,0-3.6c0-1,0.1-2,0-3
		c-0.1-0.5-0.2-0.9-0.3-1.4c-0.1-0.6-0.1-1.3,0-1.9c0-2.3,0.1-4.6,0.1-6.9c0-2.3-0.1-4.5-0.2-6.8c0-1.1-0.1-2.2-0.1-3.3
		c0-1.1,0.1-2.2-0.1-3.3c-0.1-0.5-0.2-0.9-0.3-1.4c0-0.6,0-1.2,0.1-1.7c0.1-1.2,0.1-2.4,0.1-3.6c0-1.3,0-2.6-0.1-3.9
		c0-1.3,0-2.6-0.3-3.8c-0.1-0.4-0.8-0.4-0.9,0c-0.2,1.1-0.2,2.1-0.2,3.2c0,1.2-0.1,2.4-0.1,3.6c0,1.1,0,2.1,0,3.2
		c0,1.1-0.1,2.1,0.1,3.2c0.1,0.9,0.4,1.6,0.4,2.5c0,1.2,0,2.4,0,3.6c-0.1,2.3-0.2,4.5-0.3,6.8c0,2.3,0,4.6,0,6.8
		c0,1.1-0.1,2.2,0,3.3c0.1,1.1,0.4,2,0.4,3.1c0,2.2,0,4.5,0,6.7c0,0,0,0.1,0,0.1c0,0.4-0.1,0.9-0.1,1.3c0,0.3,0,0.6-0.1,0.9
		c0,0.2-0.1,0.4-0.1,0.6c-0.1,1.1-0.1,2.2-0.1,3.3c0,0.3,0,0.6,0.1,0.9c0,0.1,0,0.2,0,0.3c0,1.1,0,2.2,0,3.3c0,1.1,0,2.1,0.2,3.1
		c0.1,0.7-0.2,1.5-0.2,2.3c0,1.1,0.3,2.1,0.4,3.1c0.1,1.1,0.1,2.2,0.1,3.3c0,1.2-0.2,2.2-0.4,3.4c-0.2,1.1-0.5,2-1.1,2.9
		c-0.6,0.7-1.4,1.2-2.2,1.6c-0.8,0.4-1.6,0.7-2.5,0.7c-1.1,0-2.1,0.2-3.1,0.3c-2.2,0.2-4.5-0.1-6.7,0c-1.5,0.1-3.3,0.4-4.6,1.3
		c0-0.2-0.1-0.3-0.1-0.5c-0.4-1.3-1-2.4-1.8-3.5c-0.8-1-1.8-1.9-2.9-2.7c-1.1-0.8-2.3-1.3-3.5-1.8c-0.7-0.3-1.3-0.5-2-0.7
		c-0.7-0.2-1.4-0.3-2-0.5c-1.4-0.4-2.7-0.4-4.1,0c-1.4,0.4-2.6,0.8-3.6,1.9c-0.4,0.4-0.8,0.8-1.1,1.2c0-0.4,0.6-1,0.8-1.4
		c0.3-0.6,0.7-1.3,0.8-2c0.1-0.6-0.2-1.1-0.3-1.7c-0.2-0.7-0.2-1.4-0.5-2.2c-0.6-1.3-1.2-2.6-2-3.8c-0.9-1.2-2-2.1-3.1-3.1
		c-1.1-0.9-2-2-3.3-2.6c-1.4-0.7-2.8-1.3-4.2-1.9c-1.4-0.6-2.9-1-4.4-0.6c-0.9,0.2-1.8,0.3-2.8,0.5c0.1-0.1,0.1-0.2,0.2-0.3
		c0.3-0.4,0.5-0.7,0.7-1.2c0.2-0.5,0.4-1,0.6-1.5c0.2-0.5,0.5-1,0.6-1.5c0.3-0.9,0.3-2,0.3-2.9c0-1.1,0-2.2-0.3-3.3
		c-0.4-2-1.1-4.2-2.5-5.6c-0.6-0.7-1.4-1.1-2.2-1.4c-0.8-0.3-1.9-1-2.6-0.2c-0.3,0.3-0.3,0.6-0.1,1c0.3,0.7,1.4,1,2,1.2
		c0.7,0.3,1.3,0.7,1.8,1.3c0.6,0.7,0.9,1.5,1.2,2.4c0.3,1,0.7,2,0.8,3c0.1,0.9,0.1,1.9,0.1,2.9c0,1-0.3,1.7-0.6,2.6
		c-0.3,0.9-0.5,1.8-0.9,2.6c-0.2,0.5-0.4,1-0.3,1.4c-0.5,0.2-0.8,0.6-1.2,0.9c-0.4,0.4-0.9,0.7-1.2,1.2c-0.3,0.3-0.8,0.8-0.7,1.3
		c0,0.2,0.3,0.6,0.5,0.4c-0.1,0,0.2-0.1,0.3-0.1c0.1-0.1,0.3-0.3,0.4-0.4c0.3-0.3,0.7-0.5,1-0.7c0.3-0.2,0.6-0.3,0.9-0.5
		c0.2-0.1,0.4-0.4,0.6-0.5c0.2-0.1,0.6-0.2,0.9-0.2c0.5-0.1,1-0.1,1.5-0.2c0.7-0.1,1.3-0.3,1.9-0.3c1.2-0.1,2.7,0.5,3.7,1
		c1.1,0.6,2.4,1,3.4,1.6c1,0.6,1.8,1.5,2.7,2.2c1,0.8,2,1.6,2.7,2.6c0.7,1,1.3,2.2,1.8,3.4c0.3,0.6,0.3,1.2,0.5,1.9
		c0.1,0.6,0.4,1,0.3,1.6c-0.1,0.6-0.4,1.2-0.6,1.7c-0.3,0.6-0.5,1.1-0.4,1.7c0.1,0.4,0.4,0.5,0.7,0.5c-0.2,0.3-0.5,0.7-0.7,1
		c-0.3,0.5-0.4,1.2-0.6,1.8c-0.1,0.7,0,1.4-0.2,2c-0.2,0.7-0.2,1.4-0.2,2.1c0,0.8-0.1,1.6-0.3,2.4c-0.1,0.5,0.5,1,0.9,0.5
		c0.7-0.9,0.9-2,1-3.1c0.1-0.6,0.2-1.1,0.3-1.6c0.2-0.5,0.1-1.1,0.3-1.7c0.2-1.1,0.6-1.8,1.3-2.6c0.7-0.8,1.4-1.9,2.5-2.2
		c1.1-0.4,2.3-0.8,3.5-0.8c0.6,0,1.1,0.3,1.7,0.4c0.6,0.1,1.3,0.2,1.9,0.5c2.3,0.8,4.4,1.7,6.1,3.5c0.9,0.9,1.6,2.1,2.3,3.2
		c0.3,0.5,0.5,1,0.6,1.5c-0.1,0.2-0.2,0.3-0.3,0.5c-0.3,0.5-0.7,0.9-1,1.4c-0.5,1-0.5,2.1-0.3,3.1c0.1,0.4,0.7,0.4,0.8,0
		c0.2-1.1,0.4-1.9,1.1-2.8c0.1-0.1,0.2-0.2,0.3-0.3c0,0,0.1,0.1,0.1,0.1c0.3,0.5,1,0.3,1-0.3c0-0.3-0.1-0.6-0.2-0.8
		c0.2-0.2,0.4-0.4,0.7-0.5c1.4-0.9,3.2-0.9,4.8-0.9c2.2,0,4.6,0.2,6.8-0.2c1-0.2,2-0.1,3-0.3c0.9-0.2,1.8-0.6,2.7-1
		c1.7-0.9,3-2.3,3.7-4.3c0.3-1,0.5-2.2,0.6-3.2c0.1-1.1,0.1-2.3,0.1-3.5C154.9,225.7,154.9,224.7,154.7,223.6z"/>
	<path d="M107.9,204.8c-0.1-0.6-0.4-1.1-0.7-1.6c-0.3-0.5-0.6-1-1.1-1.4c-1-0.9-2.3-1-3.5-0.7c-0.2,0-0.4,0.1-0.5,0.2
		c-0.6-0.2-1.1,0-1.6,0.5c-0.5,0.6-0.7,1.4-0.8,2.2c-0.1,0.7-0.1,1.3,0,2c0.2,1,0.9,1.9,1.7,2.5c0.8,0.5,1.8,0.9,2.7,0.8
		c1-0.1,1.9-0.6,2.6-1.4C107.5,206.9,108.1,205.9,107.9,204.8z M105.8,205.7c-0.1,0.2-0.2,0.3-0.3,0.5c0,0-0.1,0.1-0.1,0.1
		c-0.1,0.1-0.1,0.1-0.2,0.2c-0.1,0.1-0.3,0.3-0.4,0.4c0,0-0.1,0-0.1,0.1c-0.1,0-0.1,0.1-0.2,0.1c0,0,0,0,0,0c0,0,0,0,0,0
		c-0.1,0-0.2,0.1-0.3,0.1c-0.1,0-0.3,0-0.1,0c-0.1,0-0.2,0-0.2,0c-0.1,0-0.2,0-0.2,0c0,0-0.1,0-0.1,0c0,0,0,0,0,0
		c-0.2,0-0.3-0.1-0.5-0.1c-0.1,0-0.1,0-0.2-0.1c0,0-0.1-0.1-0.2-0.1c-0.1-0.1-0.3-0.2-0.4-0.3c0,0,0,0-0.1-0.1c0,0,0,0,0,0
		c-0.1-0.1-0.2-0.1-0.2-0.2c-0.1-0.1-0.1-0.1-0.2-0.2c0,0,0,0,0,0c0,0,0,0,0-0.1c-0.1-0.1-0.2-0.3-0.2-0.4c0,0,0-0.1,0-0.1
		c0-0.1-0.1-0.2-0.1-0.3c0,0,0-0.1,0-0.1c0-0.2,0-0.4,0-0.7c0-0.1,0-0.1,0-0.2c0.2-0.1,0.4-0.3,0.5-0.6c0,0.1,0,0.1,0,0.1
		c0,0,0,0,0.1-0.1c0,0,0,0,0.1-0.1c0.1,0,0.2-0.1,0.2-0.1c0.1,0,0.1-0.1,0.2-0.1c0,0,0,0,0,0c0,0,0,0,0,0c0.2-0.1,0.4-0.1,0.5-0.2
		c0.1,0,0.3-0.1,0.4-0.1c0,0,0.1,0,0.1,0c0.1,0,0.2,0,0.3,0c0.1,0,0.2,0,0.3,0c0,0,0,0,0.1,0c0,0,0.1,0,0.1,0c0.1,0,0.2,0,0.3,0.1
		c0,0,0,0,0,0c0,0,0.1,0,0.1,0c0,0,0.1,0.1,0.2,0.1c0,0,0,0,0,0c0,0,0.1,0.1,0.1,0.1c0.1,0.1,0.3,0.4,0.4,0.5c0.2,0.2,0.5,0.7,0.6,1
		c-0.1-0.1,0,0.1,0,0.2c0,0,0,0.1,0,0.1c0,0,0,0.1,0,0.1c0,0,0,0.1,0,0.1c0,0,0,0,0,0c0,0,0,0,0,0
		C105.9,205.6,105.9,205.7,105.8,205.7z"/>
	<path d="M53.6,208.2c-0.9-1.5-2.1-3-3.6-3.8c-1.7-0.8-3.6-0.8-5.4-0.1c-0.5,0.2-0.9,0.5-1.3,0.8c-0.6,0.4-1.2,0.9-1.6,1.4
		c-1.1,1.3-1.6,3-1.6,4.8c0,1.8,0.8,3.5,1.9,4.8c1.1,1.3,2.9,2.3,4.5,2.6c1.7,0.3,3.5-0.4,4.9-1.4c0.7-0.5,1.3-1.1,1.8-1.8
		c0.5-0.7,1.1-1.3,1.3-2.2C55.1,211.6,54.5,209.7,53.6,208.2z M51,215c-0.8,0.8-2.1,1.6-3.2,1.8c-1.2,0.1-2.6-0.6-3.5-1.3
		c-1-0.7-1.8-1.9-2.1-3.1c-0.2-1-0.2-2.1,0.2-3c0.1,0,0.2,0.1,0.2,0.1c0.4,0.1,1-0.2,1-0.7c0.4-2.2,3-3,4.9-2.4
		c1.3,0.4,2.1,1.3,2.9,2.3c0.7,1,1.4,2.1,1.4,3.3C52.7,213.2,51.8,214.2,51,215z"/>
	<g>
		<path d="M34.3,204.5C34.3,204.5,34.3,204.5,34.3,204.5C34.3,204.5,34.3,204.5,34.3,204.5C34.4,204.5,34.3,204.5,34.3,204.5z"/>
		<path d="M33.2,203.9C33.2,203.9,33.2,203.9,33.2,203.9C33.2,204,33.3,204,33.2,203.9z"/>
		<path d="M36.8,200.5c-1.4-1.7-4.2-1.3-5.3,0.6c-0.5,0.9-0.5,2-0.3,2.9c0.2,1,0.8,1.9,1.7,2.4c0.3,0.2,0.7,0.2,1-0.1
			c0,0,0.1-0.1,0.1-0.1c0.8,0.1,1.7,0.1,2.4-0.4c0.7-0.5,1.3-1.3,1.4-2.2C37.9,202.5,37.5,201.3,36.8,200.5z M35.9,203.7
			C35.9,203.7,35.9,203.7,35.9,203.7c0,0-0.1,0.1-0.1,0.1c0,0.1-0.1,0.1-0.1,0.2l0,0c0,0,0,0,0,0c-0.1,0.1-0.1,0.1-0.2,0.2
			c0,0,0,0,0,0c0,0-0.1,0.1-0.1,0.1c0,0-0.1,0.1-0.1,0.1c0,0-0.1,0-0.1,0c-0.1,0-0.1,0-0.2,0c0,0,0,0-0.1,0c-0.1,0-0.3,0-0.4,0
			c0,0-0.1,0-0.1,0c0,0,0,0,0,0c0,0,0,0,0,0c0,0,0,0,0,0c0,0,0,0,0,0c0,0,0,0-0.1,0c-0.1,0-0.3-0.1-0.4-0.1c0,0-0.1,0-0.1,0
			c-0.1,0-0.1,0,0,0c0,0-0.1-0.1-0.1-0.1c-0.1-0.1-0.2-0.1-0.3-0.2c0,0,0,0,0-0.1c0,0,0-0.1,0-0.1c0,0,0,0,0,0
			c0-0.1-0.1-0.3-0.1-0.4c0-0.1,0-0.2,0-0.2c0,0,0,0,0,0c0,0,0,0,0,0c0-0.1,0-0.3,0-0.4c0,0,0-0.1,0-0.1c0,0,0,0,0,0.1
			c0-0.1,0-0.1,0-0.2c0-0.1,0-0.1,0.1-0.2c0,0,0,0,0,0c0,0,0-0.1,0.1-0.1c0,0,0-0.1,0-0.1c0,0,0,0,0,0c0,0,0,0,0,0c0,0,0,0,0,0
			c0,0,0.1-0.1,0.1-0.1c0.1-0.1,0.1-0.1,0.2-0.2c0,0,0,0,0,0c0.1-0.1,0.2-0.1,0.2-0.1c0,0,0,0,0,0c0,0,0.1,0,0.1,0
			c0.1,0,0.2-0.1,0.2-0.1c0.1,0,0.2,0,0.3-0.1c0,0,0.1,0,0.1,0c0,0,0.1,0,0.2,0c0,0,0,0,0,0c0,0,0.1,0,0.1,0c0.1,0,0.1,0,0.2,0.1
			c0,0,0.1,0.1,0.1,0.1c0,0,0.3,0.2,0.1,0.1c0.1,0,0.1,0.1,0.2,0.2c0,0,0.1,0.1,0.1,0.1c0,0,0,0,0,0.1c0,0.1,0.1,0.1,0.1,0.2
			c0,0.1,0.1,0.1,0.1,0.2c0,0,0,0.1,0.1,0.1c0,0.1,0.1,0.2,0.1,0.2c0,0,0,0.1,0,0.1c0,0,0,0,0,0.1c0,0,0,0.1,0,0.1c0,0,0,0.1,0,0.1
			c0,0,0,0,0,0.1C35.9,203.4,35.9,203.6,35.9,203.7z"/>
		<path d="M33,202.7C33,202.6,33,202.6,33,202.7L33,202.7z"/>
		<path d="M33.3,202C33.3,202,33.2,202,33.3,202C33.2,202.1,33.2,202.1,33.3,202C33.2,202,33.3,202,33.3,202z"/>
	</g>
	<path d="M242.6,199.5c-0.1-1.1-0.5-1.9-1.2-2.8c-0.7-0.9-1.2-1.8-2.2-2.3c-1-0.5-2-0.7-3.1-0.6c-0.7,0.1-1.3,0.2-1.9,0.5
		c-0.8,0-1.5,0.2-2.2,0.6c-0.8,0.5-1.6,1.3-2.1,2.1c-1.2,1.8-1.4,4.3-0.8,6.4c0.3,1.1,0.8,2.2,1.5,3.2c0.2,0.4,0.4,0.8,0.7,1.2
		c0.4,0.5,0.9,0.7,1.4,0.8c1.8,1.1,3.9,1.2,5.7,0.1c1.9-1.1,3.5-3.3,4-5.6C242.7,201.9,242.8,200.7,242.6,199.5z M240.5,201.8
		c-0.1,1.8-1,3.5-2.4,4.6c-1.1,0.9-2.2,1.2-3.4,0.8c-0.1-0.1-0.3-0.2-0.6-0.3c0,0-0.1,0-0.2,0c0,0,0,0-0.1,0
		c-0.4-0.2-0.8-0.6-1.1-0.9c0-0.1-0.1-0.2-0.1-0.4c-0.2-0.5-0.3-1-0.5-1.5c-0.3-0.8-0.6-1.5-0.5-2.3c0-0.8,0.3-1.7,0.7-2.4
		c0.7-1.4,1.8-2.6,3.3-3c0.7-0.2,1.4-0.2,2-0.1c0.8,0.2,1.2,0.6,1.7,1.3c0.4,0.5,0.9,1,1.1,1.7C240.7,200,240.6,201,240.5,201.8z"/>
	<path class="st0" d="M168.1,39.4l-7.3-3l-3.3,3l-9.9,11.2l-1.3,94.8v5.3l29.6,0.1c-2-36.2-1.6-72-5.9-109L168.1,39.4z"/>
	<path class="st4" d="M180.1,62.8l-2-10.9l-8-10c4.3,36.9,3.9,72.8,5.9,109l7.4,0L180.1,62.8z"/>
	<path class="st5" d="M146.6,98.5l-15.4,17l0.7,21.3l16.2-0.2C148.4,123.9,146.6,111.2,146.6,98.5z"/>
	<path class="st6" d="M153.4,90.9l-6.8,7.5c0.1,12.7,1.9,25.4,1.5,38.2l6.2-0.1L153.4,90.9z"/>
	<path class="st6" d="M180.2,99c0,2.4,0.3,39,0.3,39l10.1-1.2c-4.1-9.8-4.1-21.7-5.3-32.4L180.2,99z"/>
	<path class="st5" d="M197.1,117.3l-11.9-12.8c1.2,10.7,1.2,22.6,5.3,32.4l5.3-0.6L197.1,117.3z"/>
	<path class="st6" d="M174.7,138l-2-1.6l-4.5,0.4l-0.6,13.4l15,1.5C178.6,147.5,172.7,144.8,174.7,138z"/>
	<path class="st5" d="M182.6,151.7l1.1,0.1l-0.5-7l-8.4-6.8C172.7,144.8,178.6,147.5,182.6,151.7z"/>
	<path class="st2" d="M162,11.2l-1.8,1.2l-5.1,6.2l-4.7,8.7l-2.3,9.4l-1.5,6.9l-0.2,5.9l0.6,0.9l13.5-13l3.9-0.7l3.6,2.7l1.4,1.4
		c-0.2-10.2-1.8-20.6-6-29.7L162,11.2z"/>
	<path class="st3" d="M178.1,34.7l-2.3-4.6l-4.1-8.9l-3-5.5l-2.3-3.2l-2.2-1.5l-0.8,0.1c4.2,9.1,5.8,19.5,6,29.7l4.4,4.2l3.2,7.7
		l1.7,2v-9L178.1,34.7z"/>
	<polygon class="st3" points="179.5,97.6 179.5,63.1 183.3,67.4 185.2,71.4 186,77.5 186.2,102.9 	"/>
	<polyline class="st3" points="147.4,150.8 175.2,150.6 175.2,155.9 150.8,156.6 148.6,154 148,151.7 	"/>
	<polyline class="st7" points="182.9,142.9 182.9,138.1 186.6,138.3 185.8,145.8 184.2,145.6 	"/>
	<path d="M157.4,169.9c0.1-0.3,0-0.6-0.1-0.8c0-0.1-0.1-0.3-0.2-0.4c-0.1-0.1-0.1-0.2-0.2-0.3c-0.1-0.1-0.1,0-0.1,0.1
		c0.2,0.2,0.2,0.5,0.3,0.7c0.1,0.2,0.2,0.5,0.1,0.7c-0.1-0.3-0.2-0.6-0.5-0.8c-0.2-0.1-0.4,0.1-0.3,0.3c0.2,0.3-0.1,1.1-0.1,1.5
		c0,0.5-0.2,1-0.2,1.4c0,0.3,0.2,0.5,0.2,0.8c0,0.3,0,0.7,0,1c0,0.7-0.1,1.3-0.1,2c0,0.4-0.1,0.7-0.1,1.1c0-0.1,0-0.3,0-0.4
		c0-0.4-0.1-0.9-0.1-1.3c0-0.5,0-0.9,0-1.3c-0.1-0.9-0.3-1.7-0.3-2.6c-0.1-0.9-0.2-1.8-0.4-2.8c-0.1-1-0.2-1.9-0.5-2.9
		c-0.1-0.4-0.2-0.9-0.2-1.3c0-0.4-0.3-0.8-0.3-1.2c0-0.5-0.1-0.9-0.1-1.4c-0.1-0.4-0.2-0.8-0.3-1.2c0-0.1-0.2-0.1-0.2,0
		c0,0.5,0.1,0.9,0,1.4c0,0.4-0.1,0.8-0.2,1.3c0,0.4,0.1,0.7,0.1,1.1c0,0.5,0,0.9,0.1,1.3c0.3,1.9,0.6,3.9,0.7,5.9
		c0.1,0.8,0.3,1.6,0.3,2.5c0,0.5,0,1,0,1.5c0,0.5,0.2,0.9,0.2,1.4c0,0.9,0,1.8,0.1,2.6c0.2,1,0.1,2,0.4,2.9c0.1,0.2,0.3,0.3,0.5,0.3
		c0.7-0.2,0.7-1.3,0.7-2c0-0.7,0-1.5,0-2.2c0-0.8,0.1-1.5,0.2-2.3c0-0.8,0.2-1.7,0.2-2.5c0-0.4,0-0.7,0-1.1c0-0.4-0.2-0.7-0.1-1.1
		c0.1-0.5,0.2-1.3,0.1-1.9C157.3,169.9,157.3,169.9,157.4,169.9z"/>
	<path d="M159.7,163.6c-0.1-0.4-0.3-0.7-0.4-1.1c-0.1-0.3-0.6-0.4-0.7,0c-0.1,0.4-0.1,0.8-0.1,1.2c0,0.5,0,0.9-0.1,1.4
		c-0.1,1.1,0.1,2.1,0,3.2c0,0.5-0.1,1,0,1.5c0,0.5,0.1,1,0.1,1.5c0,0.2,0,0.5,0,0.7c0,0.2,0,0.8-0.2,0.5c-0.2-0.2-0.2-0.6-0.3-0.9
		c0,0-0.1,0-0.1,0c0.1,0.4,0.2,1.2,0.7,1.2c0,0,0.1,0,0.1,0c0.1-0.4,0.1-0.9,0.2-1.3c0.1-0.4,0.2-0.8,0.2-1.2c0-0.5,0-0.9,0.1-1.3
		c0.1-0.4,0.2-0.8,0.2-1.3c0-0.9,0.1-1.8,0.2-2.8C159.7,164.5,159.8,164.1,159.7,163.6z"/>
	<path d="M163.7,184.9c0-0.6-0.1-1.1-0.2-1.7c-0.1-1-0.3-2-0.5-2.9c-0.4-2.1-0.6-4.3-1.1-6.5c-0.5-2.2-0.7-4.5-0.9-6.7
		c-0.1-1-0.2-2.1-0.4-3.1c-0.2-1.1-0.7-2.2-0.8-3.3c0-0.1-0.2-0.1-0.2,0c0.2,2.2,0.7,4.2,0.7,6.4c0,2.2,0,4.5,0.5,6.7
		c0.4,2.1,0.6,4.2,1,6.4c0.2,1.1,0.4,2.2,0.6,3.4c0.1,0.5,0.2,1,0.2,1.5c0,0.5,0.2,0.9,0.3,1.4c0.1,0.6,0.9,0.4,0.9-0.1
		C163.8,185.8,163.7,185.3,163.7,184.9z"/>
	<path d="M165.8,171.2c-0.4-0.9-0.8-1.7-1.1-2.6c0-0.1-0.2-0.2-0.3,0c-0.2,0.2-0.1,0.5-0.2,0.8c0,0.6-0.3,1.1-0.4,1.7
		c-0.2,1.1-0.2,2.2-0.2,3.2c0,1.1,0.1,2.3,0.1,3.4c0,1.2-0.1,2.3-0.1,3.5c0,0.1,0.2,0.1,0.2,0c0.1-2.1,0.5-4.3,0.6-6.4
		c0-1,0-2,0-3.1c0-0.5,0-1,0.1-1.5c0-0.2,0-0.6,0-1c0.2,0.7,0.3,1.3,0.5,1.9c0.3,0.7,0.4,1.5,0.7,2.2c0.1,0.2,0.4,0.2,0.5-0.1
		C166.4,172.5,166.1,171.9,165.8,171.2z"/>
	<path d="M170.2,168.5c-0.1-1.1-0.2-2.1-0.4-3.2c-0.2-1-0.5-2-0.7-3c-0.1-0.5-0.2-1-0.3-1.4c-0.1-0.2-0.1-0.5-0.1-0.8
		c0-0.2-0.2-0.5-0.2-0.7c0-0.2-0.4-0.2-0.4,0c0,0.2,0.1,0.4,0.1,0.6c0,0.2,0,0.4,0,0.7c0,0.1,0,0.3,0,0.4c-0.3-0.3-0.9-0.2-1,0.3
		c-0.2,1-0.2,2-0.3,3c-0.1,0.9-0.3,1.9-0.3,2.9c0,0.4,0,0.8,0,1.3c0,0.5,0,1,0,1.4c0,1-0.1,2-0.1,3c0,0.2,0.3,0.2,0.3,0
		c0.1-1.1,0.4-2.1,0.6-3.1c0.1-0.5,0.2-0.9,0.3-1.4c0.1-0.4,0.1-0.8,0.2-1.2c0.3-1.2,0.6-2.5,0.6-3.8c0.1,0.6,0.2,1.2,0.3,1.8
		c0.3,2.2,0.4,4.4,0.7,6.5c0.1,0.4,0.7,0.4,0.8,0C170.4,170.7,170.4,169.6,170.2,168.5z"/>
	<path d="M144.2,196.2c0-0.6,0.1-1.1,0.1-1.7c0-0.5,0.1-1.1,0-1.6c-0.1-0.6-0.3-1.1-0.3-1.6c0-0.6,0.1-1.2,0-1.8
		c-0.1-0.6-0.2-1.1-0.3-1.6c-0.1-0.6-0.2-1.1-0.3-1.7c-0.1-0.5-0.1-1.1-0.3-1.6c-0.1-0.1-0.3-0.1-0.4,0c-0.4,0.9-0.1,2.3,0.1,3.3
		c0.1,0.5,0.2,1,0.3,1.5c0.1,0.7,0,1.4,0,2c0,0.5,0.2,1,0.3,1.6c0.1,0.5,0.1,1.1,0.1,1.6c0,0.6,0,1.2,0.1,1.8c0.1,0.5,0.3,1,0.5,1.5
		c0,0.2,0.4,0.2,0.3,0C144.3,197.2,144.2,196.7,144.2,196.2z"/>
	<path d="M168.8,139.3C168.7,139.3,168.7,139.4,168.8,139.3C168.8,139.4,168.8,139.3,168.8,139.3z"/>
	<path d="M162.5,14.5c-0.1-0.3-0.6-0.3-0.8,0c-0.3,0.6-0.2,1.3-0.2,2c0,0.8,0,1.6,0,2.4c0,1.5-0.2,3.1-0.2,4.6
		c0,0.6,0.1,1.2,0.2,1.8c0.2,0.7,0.1,1.4,0.2,2.1c0.1,1.3,0.1,2.5,0,3.8l0,0c-0.1-0.1-0.2,0.1-0.1,0.2c0.1,0.1,0.1,0.1,0.2,0.2
		c0.1,0.1,0.2,0,0.2-0.1c0.1-0.3,0.1-0.7,0.2-1c0.1-0.2,0.2-0.4,0.2-0.6c0.1-0.7,0.1-1.4,0.1-2.1c0-0.7,0.1-1.4,0.1-2.1
		c0-0.7-0.2-1.4-0.2-2.1c0.1-1.5,0.3-3,0.3-4.6c0-0.8,0-1.6,0-2.4C162.7,15.9,162.8,15.1,162.5,14.5z"/>
	<path d="M197.4,134.4c0-0.2,0-0.4,0-0.7c0-0.8,0-1.6,0-2.3c0-0.7,0.1-1.5,0-2.2c-0.1-0.8-0.1-1.6-0.2-2.4c-0.1-0.3-0.2-0.6-0.2-1
		c0-0.3,0-0.6,0-0.9c0-0.7-0.2-1.3-0.2-2c0-0.1,0-0.2,0-0.3l0-2c0.1-0.1,0.2-0.1,0.2-0.2c0.5-0.9,0.7-2.3,0.1-3.1
		c-0.8-1-1.6-2.1-2.4-3.1c-0.4-0.5-0.8-0.9-1.3-1.3c-0.5-0.4-0.8-0.9-1.1-1.4c-0.3-0.5-0.5-1-0.9-1.5c-0.4-0.4-0.7-0.8-1-1.2
		c-0.3-0.5-0.6-1-1-1.4c-0.4-0.5-0.9-0.8-1.3-1.3c-0.7-1-1.3-2.1-2-3.1c-0.1-0.1-0.2-0.2-0.2-0.3c0-0.3,0.1-0.7,0.1-1
		c0.1-0.1,0.2-0.2,0.2-0.4c0.2-1.4-0.1-2.6-0.1-3.9c0-1.4,0.1-2.9,0-4.3c-0.1-0.6-0.2-1.2-0.2-1.8c0-0.7,0.2-1.3,0.2-2
		c0-1.4,0-2.7,0.1-4.1c0.3-2.9,0.5-5.7,0.3-8.6c0-0.7-0.2-1.3-0.2-2c0-0.7-0.2-1.3-0.4-1.9c-0.2-0.6-0.2-1.2-0.4-1.8
		c-0.2-0.7-0.4-1.4-0.7-2c-0.5-1.3-1.2-2.5-2.2-3.5c-0.2-0.2-0.4-0.3-0.7-0.5c-0.3-0.2-0.4-0.4-0.6-0.7c-0.3-0.5-0.8-0.9-1.3-1.2
		c-0.1-1.2-0.3-2.4-0.3-3.6c0-1,0-2-0.1-3c0,0,0-0.1,0-0.1c0.1-1,0.2-2,0.2-2.9c0-1,0.1-1.9,0.1-2.9c0-1.1-0.2-2.1-0.3-3.2
		c-0.3-2.1-0.5-4.3-0.7-6.5c-0.1-0.9-0.2-1.9-0.4-2.8c-0.1-0.5-0.3-0.9-0.3-1.4c0-0.5-0.1-1-0.2-1.5c-0.2-0.9-0.3-1.8-0.7-2.6
		c-0.3-0.9-0.8-1.8-1.1-2.8c-0.3-0.8-0.5-1.6-0.9-2.4c-0.4-1-1-1.8-1.4-2.8c-0.4-0.9-0.7-1.9-1.1-2.8c-0.3-0.8-0.9-1.3-1.1-2.1
		c-0.2-0.4-0.4-0.6-0.7-0.9c-0.3-0.3-0.4-0.7-0.6-1c-0.5-0.9-1.1-1.6-1.6-2.4c-0.2-0.4-0.4-0.8-0.7-1.2c-0.3-0.4-0.7-0.8-1-1.2
		c-0.6-0.7-1.1-1.4-1.8-2c-0.6-0.5-1.4-0.9-2.3-0.8c-0.2,0-0.5,0.1-0.7,0.2c-0.3-0.4-1.1-0.3-1.2,0.3c0,0.3-0.3,0.5-0.6,0.7
		c-0.3,0.2-0.5,0.5-0.8,0.8c-0.5,0.7-1.2,1.3-1.7,2c-0.5,0.6-0.9,1.3-1.4,1.8c-0.6,0.6-1.2,1.2-1.8,1.9c-1.1,1.3-2.2,2.7-2.9,4.3
		c-0.7,1.5-1.5,2.8-2.1,4.3c-1.3,3.5-2.4,7.2-3.1,10.9c-0.2,0.9-0.3,1.8-0.4,2.8c-0.1,0.9-0.3,1.8-0.4,2.7c0,0.4,0,0.7-0.1,1.1
		c-0.1,0.4-0.1,0.7-0.1,1.2c0.1,0.8,0.3,1.6,0.3,2.5c0,2.1,0,4.2,0.1,6.3c0,0,0,0.1,0,0.1c-0.1,2.7-0.4,5.3-0.4,8c0,2.6,0,5.2,0,7.8
		c-0.5-0.9-1.1-1.8-1.7-2.7c-0.8-1.1-1.8-2.1-2.7-3.1c-0.5-0.5-1.1-1.1-1.7-1.1c-0.3-0.1-0.7,0-0.9,0.3c-1.1,0.8-2,2-3,3
		c-0.9,1-1.7,2-2.2,3.2c-0.3,0.6-0.4,1.2-0.6,1.9c-0.1,0.6-0.5,1.1-0.5,1.8c0,0.6-0.3,1.2-0.4,1.8c-0.1,0.1-0.1,0.1-0.1,0.2
		c-0.2,1.3-0.1,2.5,0,3.8c0,1.3,0.1,2.6,0,3.9c0,2.6-0.1,5.2-0.2,7.8c-0.1,5.3-0.1,10.5-0.1,15.8c0,1.5,0,2.9,0.1,4.4
		c0.1,1.1,0,2.4,0.3,3.6c-0.1,0.1-0.2,0.3-0.3,0.4c-0.2,0.3-0.3,0.6-0.5,0.9c-0.3-0.1-0.7,0-0.8,0.4c-0.1,0.8-0.2,1.6-0.1,2.4
		c0.1,0.9-0.2,1.8-0.2,2.7c0,2,0,4.1,0,6.1c0,1.9,0,3.9,0.3,5.8c0.1,0.7,0.1,1.5,0.2,2.2c0.1,0.5,0.4,1.4,0.1,1.9
		c-0.1,0.1,0.1,0.4,0.2,0.2c0.8-0.6,0.5-2.2,0.6-3c0.1-0.9-0.1-1.8-0.1-2.7c0-1.1,0.1-2.2,0.1-3.2c0-2.1,0.1-4.3,0-6.4
		c0-0.5-0.1-1,0-1.5c0-0.4,0.1-0.8,0.2-1.3c0-0.5-0.1-0.9-0.2-1.3c-0.1-0.5,0-1,0.1-1.4c0-0.1,0-0.2,0-0.3c0.4-0.3,0.8-0.9,1.1-1.2
		c0.8-0.9,1.8-1.5,2.5-2.5c0.3-0.4,0.7-0.7,1-1.1c0.4-0.6,0.7-1.2,1.2-1.8c0.3-0.4,0.8-0.7,1.1-1.1c0.4-0.4,0.6-0.9,1-1.3
		c1.6-1.8,3.2-3.7,4.8-5.5c1.7-2,3.3-4,5-6c0.8-1,1.7-2,2.5-3c0.3-0.4,0.6-0.7,0.9-1c0,0.8,0.1,1.6,0.1,2.4c0,1.5,0,3.1,0,4.6
		c0,3.1,0,6.3,0,9.4c0,6.2-0.1,12.4-0.1,18.6c0,1.8,0,3.6,0,5.4c0,0.8,0.1,1.7,0.1,2.5c0,0.8,0.1,1.5,0.3,2.2
		c-0.1,0-0.1-0.1-0.2-0.1c-2-0.2-4-0.1-5.9-0.1c-2,0-4-0.1-6,0c-0.9,0-1.8-0.2-2.7-0.2c-0.4,0-0.7,0-1.1-0.1c-0.4-0.1-0.7,0-1.1,0.1
		c-0.8,0.2-1.6,0-2.4,0.3c-0.4,0.1-0.8,0.1-1.2,0.2c-0.5,0.1-0.9,0.3-1.4,0.5c-0.2,0-0.2,0.3,0,0.3c0.4,0.1,0.8,0.2,1.2,0.2
		c0,1.4,0,2.8,0,4.2c0,0.7,0,1.4,0,2.1c0,0.7-0.2,1.4-0.2,2.1c0,0.7,0.2,1.3,0.2,2c0,0.7,0,1.5,0.1,2.2c0,0.3-0.1,3.2,0.6,3
		c0.1,0,0.2-0.1,0.3-0.2c0.5,0.8,1.5,1.2,2.3,1.6c1.1,0.5,2.4,0.7,3.6,0.8c1.1,0.1,2.2,0.2,3.2-0.2c0.2-0.1,0.5-0.2,0.7-0.3
		c0.2,0,0.5,0,0.7,0c0.5,0,1-0.3,1.4-0.4c0.2,0,0.5-0.1,0.6-0.3l0.1-0.1c0.2-0.3,0.2-0.6,0-0.8c0.1-0.2,0.1-0.3,0.1-0.5
		c0-0.3-0.1-0.5-0.1-0.7c0,0,0.1,0,0.1,0c0.2,0,0.3,0,0.5-0.1c0,0,0.1,0,0.1,0c0.2,0,0.3,0,0.5,0c0,0,0,0,0,0c0,0.1,0,0.2,0,0.3
		c0,0.2-0.1,0.5-0.1,0.7c0,0.2,0,0.4,0,0.7c-0.1,0-0.1,0.1-0.1,0.2c0,0.7,0.5,1.4,0.8,1.9c0.4,0.6,0.9,1.6,1.6,1.9
		c0.3,0.1,0.6,0,0.9-0.1c0.4-0.1,0.9-0.1,1.4-0.2c0.5-0.1,0.8,0,1.3,0c0.5,0,1,0,1.5,0c1,0,1.9,0,2.8-0.1c0.6-0.1,1.2,0,1.7,0
		c0.5,0,1.1-0.1,1.6-0.1c2.2-0.1,4.4,0.1,6.6,0.2c0.5,0,1,0,1.6-0.1c0.5-0.1,1.1-0.1,1.6,0c1.2,0.1,2.3-0.2,3.5-0.4
		c0.2,0,0.4-0.3,0.5-0.5c0.1-0.7,0.3-1.3,0.4-2.1c0-0.7,0.3-1-0.2-1.6c-0.5-0.6-1.4,0.2-1,0.8c0,0,0,0,0,0.1c0,0.1,0,0.1,0,0.2
		c-0.1,0.2,0,0.5,0,0.7c0,0.3-0.1,0.7-0.2,1c-1,0.1-2.1,0.3-3.1,0.2c-0.6,0-1.2,0-1.8,0.2c-0.6,0.1-1.2,0.1-1.7,0.1
		c-1.3,0-2.6,0-4,0.1c-0.6,0-1.2,0-1.8,0.1c-0.6,0.1-1.2,0.2-1.9,0.2c-0.6,0-1.2-0.1-1.8,0.1c-0.6,0.1-1,0.1-1.6,0.1
		c-0.7,0-1.3,0-2,0c-0.5,0-1-0.2-1.6-0.2c-0.3,0-0.5,0.1-0.8,0.1c-0.2,0-0.5-0.1-0.7-0.1c-0.2,0-0.6,0.1-0.7,0.1
		c-0.1,0-0.3-0.5-0.4-0.6c-0.3-0.4-0.7-0.7-1.1-1c-0.1-0.1-0.3-0.3-0.4-0.4c0,0,0,0,0-0.1c0-0.1,0-0.2-0.1-0.2c0,0,0-0.1,0-0.1
		c0-0.1,0-0.2,0-0.3c0-0.1,0-0.2,0-0.3c0,0,0-0.1,0-0.1c0,0,0-0.1,0-0.1c0-0.1,0-0.2,0-0.2c0,0,0,0,0,0c0,0,0,0,0-0.1
		c0-0.1,0-0.2,0-0.3c0-0.2,0.1-0.4,0.1-0.5c0.5,0,1,0,1.5,0c0.4,0,0.8,0,1.2,0c0.3,0,0.6,0.1,1,0.1c1,0.1,2,0,2.9,0
		c0.5,0,1,0.1,1.5,0.2c0.4,0,0.7-0.1,1.1-0.1c0.9-0.2,1.8,0,2.7,0c1.1,0,2.1,0,3.2,0c1,0,2,0.1,2.9,0c0.4,0,0.8-0.2,1.3-0.1
		c0.3,0,0.5,0,0.8,0c0.1,0,0.2,0,0.3,0.1c0.6,0.2,1.2,0.3,1.9,0.4c1.4,0.1,2.9-0.2,4.3,0c1.4,0.2,2.8,0.1,4.2,0.1c0.7,0,1.5,0,2.2,0
		c0.7,0,1.5,0.2,2-0.4c0.1-0.1,0.2-0.3,0.1-0.5c0.1-0.2,0.1-0.3,0.2-0.5c0.1-0.3,0.1-0.5,0.1-0.8c0-0.7,0.1-1.4,0.1-2
		c0-0.7,0-1.4,0.1-2.1c0-0.1,0-0.2,0-0.2c0.5,0.3,1.1,0.5,1.6,0.2c0.7-0.4,0.6-1.4,0.5-2.1c0-0.3,0-0.7,0-1c0-0.5,0.2-1.1,0.2-1.6
		c0.1-0.9,0.1-1.9,0.1-2.8c0.5,0.1,1,0.1,1.5,0.1c1.5,0,3-0.5,4.5-0.5c0.7,0,1.4,0.2,2.1,0.3c0.3,0,0.7,0.1,1,0c0.1,0,0.3,0,0.4-0.1
		c0.1,0,0.2-0.1,0.3-0.1c0,0,0.1,0,0.1,0c0.5,0.2,1,0,1.2-0.6C197.8,136.4,197.6,135.4,197.4,134.4z M142.9,100.2
		c-0.3,0.7-0.5,1.4-0.8,2.1c0,0,0,0.1-0.1,0.1c-0.7,0.8-1.5,1.6-2.2,2.4c-0.3,0.4-0.7,0.8-1,1.3c-0.3,0.4-0.5,0.9-0.9,1.2
		c-0.4,0.4-0.7,0.7-1,1.2c-0.4,0.5-0.6,1.1-1,1.6c-0.4,0.4-0.8,0.8-1.1,1.2c-0.4,0.5-0.9,1-1.4,1.4c0.1-0.7,0.1-1.4,0.1-2
		c0.1-1.3,0.1-2.6,0.1-3.9c0-2.6,0-5.2,0-7.8c0-5.3-0.2-10.5-0.2-15.8c0-1.5,0-2.9,0-4.4c0-0.3,0-0.6,0-0.9c0,0,0,0,0,0
		c0,0,0,0,0-0.1c0-0.1,0-0.2,0-0.3c0,0,0,0,0,0c0,0.1,0.1,0.1,0.1,0.1c0,0,0.1,0,0.1,0c0,0,0-0.1,0-0.1c0,0-0.1-0.1-0.1-0.1
		c0,0,0,0,0,0c0,0,0,0,0,0c0,0,0-0.1,0-0.1c0,0,0,0,0,0c0,0,0-0.1,0-0.1c0-0.1-0.1-0.3-0.2-0.3c0-0.3,0-0.5,0-0.8c0,0,0-0.1,0-0.1
		c0.2-0.4,0.2-0.9,0.3-1.4c0.1-0.5,0.3-0.9,0.5-1.4c0.1-0.5,0.1-0.9,0.3-1.4c0.2-0.5,0.3-1,0.4-1.5c0.3-1.1,0.9-2,1.6-2.9
		c0.7-1,1.3-2,2.1-2.9c0.1-0.1,0.4-0.5,0.6-0.8c0.5,0.8,1.3,1.4,1.8,2.2c0.4,0.5,0.9,0.9,1.1,1.4c0.1,0.3,0.2,0.6,0.4,0.8
		c0.2,0.3,0.4,0.6,0.6,0.9c0.5,1.3,0.3,2.9,0.3,4.2c0,1.5,0,3.1,0,4.6l0,4.7c0,0.8,0,1.5,0,2.3c0,0.7,0.2,1.4,0.3,2.1
		c0,0,0,0.1,0,0.1c0,1.8,0.1,3.7,0.1,5.5c0,1.1,0.1,2.3,0.1,3.5C143.8,97.5,143.4,98.9,142.9,100.2z M146.5,97
		c0.1-0.5,0.1-0.9,0.1-1.4c0-0.2,0-0.4,0-0.6c0.1,0.5,0.1,1,0.3,1.5C146.7,96.7,146.6,96.8,146.5,97z M144.5,153c-0.2,0-0.5,0-0.7,0
		c-0.3,0-0.5,0.1-0.7,0.2c-0.9,0.4-1.8,0.4-2.8,0.4c-2.1-0.1-4.1-0.6-5.9-1.8c-0.1,0-0.1-0.1-0.2-0.1c0.1-0.7,0.1-1.3,0.1-2
		c0-0.7,0.1-1.4,0.1-2.2c0-0.7-0.2-1.3-0.1-2c0.1-0.6,0.2-1.2,0.2-1.9c0-0.7,0-1.4-0.1-2.1c-0.1-1.4,0-2.8-0.1-4.2c0,0,0,0,0,0
		c0.4,0,0.8-0.1,1.2-0.1c0.4,0,0.7,0.1,1.1,0.1c0.2,0,0.4-0.1,0.6-0.1c0.3,0,0.3,0,0.6,0.1c0.3,0.1,0.7,0.1,1,0.1
		c0.9,0,1.8,0.2,2.8,0.2c0.8,0,1.6,0,2.3,0c-0.2,1.1-0.1,2.3-0.1,3.3c0,1.5,0,2.9,0,4.4C144,147.9,144.1,150.5,144.5,153
		C144.5,153,144.5,153,144.5,153z M180.9,96.3c0.1-0.7,0.2-1.3,0.2-2c0.1-1.3,0.1-2.6,0.1-3.9c0-2.8,0-5.5,0-8.3c0-2.7,0-5.4,0-8.2
		c0-2.8,0.1-5.6-0.3-8.3c0-0.1,0-0.2,0-0.2c0.1,0.2,0.3,0.3,0.5,0.5c1,0.7,1.7,1.9,2.1,3c0.4,1.2,0.7,2.4,1,3.7
		c0.1,0.6,0.4,1.1,0.4,1.7c0,0.7,0.1,1.4,0.2,2.1c0.2,2.7,0.1,5.4-0.3,8.1c-0.2,1.3-0.2,2.7-0.2,4c0,1.2-0.4,2.5-0.2,3.7
		c0.1,0.6,0.1,1.2,0.2,1.8c0,0.1-0.1,0.2-0.1,0.3c-0.1,0.4-0.1,0.9-0.1,1.3c0,0.8-0.1,1.6,0.2,2.4c0.1,0.2,0.1,0.3,0.1,0.5
		c0,0,0,0.1,0,0.1c0.1,0.8,0.1,1.5,0.2,2.3c0,0.2,0.1,0.3,0.2,0.4c0,0.1,0,0.1,0,0.2c-0.5-0.6-1.1-1.1-1.7-1.5
		c-0.8-0.7-1.6-1.5-2.3-2.3c0-0.1-0.1-0.2-0.2-0.2c0,0-0.1,0-0.1,0c0,0-0.1,0-0.1,0c0,0,0,0-0.1,0C180.8,97.1,180.8,96.7,180.9,96.3
		z M180.1,64.2c0.2,0.3,0.3,0.6,0.5,0.8c-0.1-0.1-0.2-0.1-0.4-0.1c0,0-0.1,0-0.1,0C180.1,64.8,180.1,64.5,180.1,64.2z M147.7,43.3
		c0.1-0.4,0-0.7,0.1-1.1c0.1-0.4,0.2-0.8,0.2-1.2c0.1-1,0.2-1.9,0.4-2.9c0.3-1.9,0.8-3.6,1.3-5.4c0.3-0.9,0.5-1.8,0.8-2.8
		c0.3-0.9,0.6-1.8,0.9-2.7c0.5-1.6,1.3-3,2-4.6c0.7-1.6,1.7-3,2.8-4.3c0.6-0.7,1.3-1.4,2-2c0.7-0.7,1.2-1.5,1.8-2.1
		c0.3-0.4,0.7-0.6,1-1c0.3-0.3,0.5-0.6,0.8-0.9c0.2,0.2,0.6,0.2,0.9,0.1c0,0,0,0,0,0c0,0,0.1,0,0.1,0.1c0.3,0.2,0.6,0.6,0.8,0.9
		c0.5,0.9,1,2,1.4,3c0.4,1.1,0.9,2.1,1.2,3.2c0.3,1.1,0.5,2.2,0.7,3.3c0.5,2.5,1,5,1.5,7.6c0.1,0.6,0.1,1.2,0.2,1.7
		c0.1,0.6,0.3,1.2,0.3,1.8c0.1,1.2,0.4,2.4,0.5,3.6c0,0.2,0.2,0.2,0.2,0c0.1-5.1-0.5-10.2-1.4-15.3c-0.2-1.2-0.4-2.4-0.7-3.6
		c-0.3-1.1-0.7-2.1-1.1-3.2c-0.4-1-0.9-2.2-1.5-3.1c-0.1-0.1-0.2-0.2-0.3-0.4c0.4,0.3,0.7,0.7,1,1c0.5,0.5,0.9,1.1,1.4,1.7
		c0.3,0.3,0.4,0.6,0.6,1c0.2,0.4,0.5,0.8,0.8,1.2c0.5,0.7,0.8,1.4,1.3,2.1c0.2,0.3,0.5,0.5,0.7,0.8c0.2,0.3,0.3,0.7,0.6,1.1
		c0.5,0.7,0.8,1.3,1.1,2c0.4,1,0.7,1.9,1.1,2.9c0.4,0.7,0.8,1.4,1.1,2.1c0.4,0.9,0.7,1.8,1.1,2.7c0.7,1.7,1.3,3.3,1.5,5.2
		c0.1,0.4,0,0.7,0,1.1c0,0.4,0.2,0.9,0.2,1.3c0.1,1,0.3,2,0.4,3c0.2,2,0.5,4,0.8,6c0.2,1.1,0.4,2.1,0.4,3.2c0,1.2,0,2.3,0.1,3.5
		c0,0,0,0,0,0c0,0,0,0.1-0.1,0.1c-0.1-0.6-0.4-1.2-0.6-1.8c-0.2-0.6-0.3-1.2-0.6-1.7c-0.2-0.4-0.6-0.7-0.7-1.2
		c-0.2-0.6-0.3-1-0.6-1.5c-0.4-0.5-0.8-1-1.2-1.5c-0.7-0.9-1.3-2-2.1-2.9c-0.8-0.9-1.6-1.7-2.5-2.5c-1-0.9-2-1.6-3-2.4
		c-0.9-0.7-1.9-1.4-3-1.5c-0.4,0-0.8-0.1-1.2-0.1c-0.1,0-0.2-0.1-0.4,0c-0.1,0-0.1,0-0.2,0c0,0,0,0-0.1,0c-0.2-0.1-0.4-0.2-0.6-0.2
		c-0.4-0.1-0.9,0-1.3,0.1c-1,0.3-1.9,0.9-2.8,1.5c-0.8,0.6-1.5,1.4-2.3,2.1c-0.8,0.7-1.6,1.6-2.4,2.4c-0.3,0.3-0.6,0.7-0.9,1
		c-0.3,0.4-0.7,0.6-1.1,0.9c-0.3,0.3-0.4,0.6-0.6,0.9c-0.2,0.4-0.6,0.9-1,1.2c-0.3,0.3-0.6,0.5-0.8,0.9c-0.3,0.5-0.6,1-0.9,1.5
		c-0.1,0.2-0.3,0.3-0.4,0.5c0-0.4,0-0.8,0.1-1.2c0-0.8,0.1-1.5,0-2.2c-0.1-0.4-0.2-0.8-0.2-1.2C147.5,44.1,147.7,43.7,147.7,43.3z
		 M167.2,136.7c0,0.1,0.1,0.2,0.1,0.3c-0.2,0.2-0.2,0.4-0.1,0.7c0.3,1-0.1,2.2,0,3.3c0.1,0.6,0.2,1.1,0.2,1.7c0,0.6,0,1.3,0,1.9
		c0,0.3,0,0.5,0,0.8c0,0.3,0.2,0.5,0.2,0.8c0.1,0.6,0,1.2,0.1,1.8c0,0.6,0,1.2,0,1.8c0,0.1,0,0.2,0,0.2c-0.4,0-0.8,0.1-1.2,0.2
		c-1,0-2.1,0-3.1,0c-1,0-2,0-2.9,0c-0.9,0-1.7-0.1-2.6,0.1c-0.9,0.2-1.7,0-2.6,0c-1,0-1.9,0.2-2.9,0c-0.7-0.1-1.5,0.1-2.2,0.1
		c-0.9,0-1.7,0.1-2.6,0.3c0.1-1,0.3-1.9,0.3-2.9c0-0.5,0.1-0.9,0-1.4c0.1-0.3,0.2-0.7,0.2-1c0.1-0.5,0-0.8-0.4-1.1c0,0-0.1,0-0.1,0
		c-0.3-1.4-0.2-2.8-0.2-4.2c0-0.8,0.3-1.8-0.4-2.3c-0.1-0.1-0.3-0.1-0.5,0c0,0,0,0,0,0c0-0.1,0-0.1,0-0.2c0.4,0,0.8,0,1.2,0
		c2,0,4,0.1,6-0.1c0.6,0,0.8-0.6,0.6-1c0,0,0,0,0,0c0.5-1.4,0.4-3.1,0.4-4.6c0-1.6,0-3.1,0-4.7c0-3.2-0.1-6.3-0.1-9.4
		c0-6.2,0-12.4,0-18.6c0-1.8,0-3.5,0-5.3c0-1.7,0.2-3.5,0-5.2c0,0,0,0,0,0c-0.2-0.5-0.9-0.6-1.1-0.1c-0.2,0-0.4,0.2-0.5,0.5
		c-0.1,0.3-0.5,0.6-0.7,0.8c-0.4,0.3-0.6,0.7-1,1.1c-0.7,0.9-1.4,1.8-2.2,2.6c-0.6,0.7-1.3,1.5-1.9,2.3c0.2-1.1,0.2-2.3,0.3-3.5
		c0.1-1.4,0.1-2.8,0.2-4.2c0.1-2.9,0.1-5.7,0.1-8.6c0-1.1,0-2.2,0-3.3c0.4-0.9,0.2-1.8,0.1-2.8c0-0.1,0-0.2-0.1-0.4
		c0-3.6,0-7.1,0-10.7c0-1.5,0-3.1-0.1-4.6c-0.1-1.5-0.2-3.1-0.3-4.6c0-0.9,0-1.9,0.1-2.8c0.2-0.4,0.5-0.6,0.8-0.9
		c0.3-0.3,0.6-0.6,0.8-0.9c0.6-0.8,1.3-1.3,2-2c0.3-0.3,0.5-0.6,0.7-1c0.2-0.4,0.7-0.5,1-0.8c0.3-0.3,0.6-0.6,0.9-0.9
		c0.4-0.4,0.8-0.8,1.2-1.1c0.8-0.7,1.6-1.5,2.4-2.2c0.8-0.7,1.4-1.4,2.3-1.9c0.3-0.2,0.7-0.4,1.1-0.6c0.1,0.1,0.2,0.1,0.3,0.2
		c0.5,0.2,1,0,1.5,0.1c0.5,0.1,1.1,0,1.6,0.1c1.1,0.1,1.9,1,2.7,1.6c0.9,0.7,1.8,1.3,2.7,2.1c0.8,0.8,1.6,1.5,2.3,2.3
		c0.7,0.8,1.3,1.8,2,2.6c0.3,0.4,0.8,0.8,1.1,1.3c0.2,0.4,0.2,0.9,0.5,1.3c0.2,0.4,0.6,0.7,0.8,1.1c0.3,0.5,0.5,1,0.7,1.6
		c0.4,1,0.9,2,1.4,2.9c-0.1,1-0.1,2-0.1,3.1c0,0.7,0,1.5,0,2.2c0.1,0.7,0.2,1.5,0.2,2.2c0,1.5-0.1,2.9-0.1,4.4c0,1.5,0,3,0,4.5
		c0,3.1,0,6.2,0,9.3c0,1.5,0,3,0,4.5c0,1.5-0.1,3,0.1,4.4c0.1,0.7,0.2,1.4,0.2,2c0,0.8,0,1.7,0,2.5c0,1.5,0,3.1,0,4.6
		c0,1.5,0,2.9,0,4.4c0,1.4,0.2,2.7,0.3,4.1c0.1,1.4,0.3,2.8,0.3,4.2c0,1.4-0.1,2.8-0.1,4.3c0.1,1.4,0.2,2.8,0.2,4.2
		c0,0.6-0.1,1.2-0.1,1.9c0,0.7,0.2,1.3,0.3,1.9c0.1,0.8,0,1.6,0.1,2.4c0.1,0.8,0.3,1.5,0.3,2.2c0,1.6,0.3,3.1,0.3,4.7
		c0,1.5-0.1,3.1,0,4.7c0.1,0.6,0,1.4,0,2c0,0.4-0.1,0.8-0.2,1.2c-0.2-0.1-0.4-0.3-0.5-0.4c-0.8-0.5-1.6-0.9-2.4-1.5
		c-0.8-0.5-1.6-1.1-2.3-1.7c-0.6-0.4-0.9-1.2-1.5-1.3c-0.3-0.1-0.6,0-0.9-0.1c-0.2,0-0.4-0.1-0.6-0.2c-0.7-0.2-1.4-0.3-2.1-0.5
		c-0.4-0.1-0.9-0.1-1.3-0.1c-0.4-0.1-0.6-0.3-1-0.3c-0.4-0.1-0.7,0.2-0.7,0.6C166.9,136.2,167,136.4,167.2,136.7z M183.3,150.7
		c0,0,0,0.1,0,0.1c-0.5-0.2-1-0.1-1.5-0.1c-0.7,0-1.5,0-2.2,0c-1.4,0-2.9,0.1-4.3-0.1c-1.4-0.2-2.8,0.2-4.2,0.2c-0.5,0-1,0-1.5-0.1
		c0-0.1-0.1-0.2-0.2-0.3c0,0,0,0-0.1-0.1c-0.2-0.2-0.4-0.2-0.7-0.1c0.2-0.1-0.1-0.1-0.3-0.1c0-0.2,0-0.3,0.1-0.5
		c0.1-0.6,0.1-1.2,0.1-1.7c0-0.6,0.1-1.3,0.1-1.9c0-0.3-0.1-0.5-0.1-0.8c0-0.3,0-0.7,0-1c0-0.7,0-1.4,0-2.1c0-0.6-0.2-1.1-0.2-1.7
		c0-0.9,0.3-2.2-0.1-3.1c0-0.1,0-0.3,0-0.4c0-0.1,0-0.1,0-0.2c0,0,0.1,0,0.1,0c0.4,0.1,0.9,0.1,1.3,0.2c0.7,0.1,1.4,0.3,2.1,0.5
		c0.2,0,0.4,0.1,0.6,0.1c0.3,0.1,0.7-0.1,0.9,0c0.3,0.1,0.6,0.7,0.8,0.9c0.3,0.2,0.7,0.5,1,0.7c0.8,0.6,1.5,1.1,2.3,1.7
		c0.8,0.6,1.7,1.1,2.5,1.7c0.6,0.5,1.3,1,2,1.4c0.5,0.3,0.8,0.7,1.2,0.9c0,0,0,0,0,0c0,0.4,0,0.7,0,1.1c0,0.7,0,1.4,0.1,2
		c0,0.7,0,1.3,0.1,2C183.3,150.1,183.4,150.4,183.3,150.7z M181.2,142C181.2,142,181.2,141.9,181.2,142c0-0.3,0.1-0.5,0.2-0.7
		c0,0.1,0.1,0.3,0.1,0.4c0,0.1,0,0.2,0.1,0.3c0,0.1,0.1,0.2,0.1,0.3C181.5,142.2,181.3,142.1,181.2,142z M184.9,143.2
		c0,0.3,0.1,0.6,0.1,0.8c0,0.2,0,0.3,0,0.5c0,0.1,0,0.1,0,0.2c-0.1,0-0.2,0-0.4,0c-0.2,0-0.4,0-0.5-0.1c0-0.3,0-0.6-0.1-0.9
		c-0.1-0.3-0.4-0.4-0.6-0.3c0.1-0.1,0.2-0.3,0.2-0.5c0-1.2,0-2.3,0-3.5c0,0,0-0.1,0-0.1c0.3,0,0.5,0,0.8,0c0.2,0,0.5-0.1,0.6-0.3
		c0,0.5,0,1,0,1.5C185.1,141.5,184.9,142.3,184.9,143.2z M195.4,136.4c-0.7,0-1.4-0.1-2-0.2c-1.5-0.3-2.9,0.2-4.4,0.4
		c-0.7,0.1-1.5,0.2-2.2,0.1c-0.6-0.1-1-0.4-1.6-0.1c-0.3,0.2-0.3,0.2-0.7,0.2c-0.3,0-0.6-0.1-1-0.2c-0.4,0-0.7,0.1-1.1,0.1
		c-0.2,0-0.3-0.1-0.6-0.1c-0.1,0-0.2,0.1-0.3,0.2c0-0.8,0-1.6,0-2.4c0.1-1.5-0.1-2.8-0.2-4.3c-0.1-0.7,0-1.3,0-2
		c0-0.7-0.3-1.4-0.3-2.1c0-0.7,0-1.4,0-2c-0.1-0.6-0.2-1.2-0.2-1.9c0-1.3,0.1-2.6,0-3.9c-0.1-1.4-0.2-2.8-0.2-4.3
		c0.1-1.4,0-2.8-0.2-4.2c-0.1-1.4-0.2-2.7-0.3-4.1c-0.2-1.4,0-2.8,0-4.2c0-0.8,0-1.6,0-2.4c0.1,0.1,0.1,0.1,0.2,0.2
		c0.3,0.2,0.5,0.5,0.7,0.8c0.2,0.3,0.4,0.7,0.7,1c0.3,0.2,0.6,0.4,0.8,0.6c0.3,0.2,0.6,0.5,0.8,0.8c0.2,0.2,0.4,0.4,0.6,0.5
		c0.2,0.1,0.2,0.2,0.1,0.1c0,0,0,0,0,0c0.2,0.1,0.2,0.2,0.1,0.1c0,0,0,0,0,0c0,0,0.1,0.1,0.1,0.1c0.1,0.1,0.1,0.1,0.1,0.2
		c0,0,0,0,0.1,0.1c0.3,0.4,0.5,0.9,0.8,1.4c0.3,0.5,0.7,1,1,1.5c0.3,0.5,0.6,0.9,1,1.3c0.4,0.4,0.9,0.8,1.3,1.3
		c0.3,0.5,0.6,1,1.1,1.5c0.3,0.4,0.7,0.7,0.9,1.1c0.3,0.6,0.6,1.1,0.9,1.7c0.4,0.5,0.8,0.8,1.2,1.2c0.9,0.8,1.6,2,2.4,3.1
		c0.1,0.2,0.3,0.4,0.5,0.6c-0.1,0-0.1,0.1-0.2,0.2c-0.3,0.7-0.3,1.4-0.3,2.2l0,2.3c0,1.6,0,3.2,0,4.8c0,1.6,0,3.1,0.1,4.7
		c0.1,1.3-0.1,2.8,0.4,4.1C195.7,136.3,195.6,136.4,195.4,136.4z"/>
	<path d="M161.2,69.4c0,0.2,0.1,0.4,0.2,0.6c0.2,0.6,0.3,1.1,0.5,1.7c0.1,0.5,0.2,1,0.5,1.4c0.4,0.8,0.9,1.5,1.5,2.1
		c0.4,0.4,1,0.7,1.5,1c0.5,0.2,1.1,0.3,1.7,0.3c0.3,0,0.8-0.1,0.9-0.4c0.1-0.1,0.1-0.3,0.3-0.4c0.1,0.1,0,0.3,0,0.4
		c0,0.3,0,0.6,0,0.9c0,0.5,0,1,0,1.4c0,0.6,0.1,1.2,0.1,1.8c0,0.3,0,0.5,0,0.7c0,0.1,0,0.3,0,0.4c0.1,0.7,0.1,1.3,0,2
		c-0.1,0.5-0.2,0.9-0.4,1.3c0,0.1,0,0.2-0.1,0.3c-0.1,0.1-0.2,0.2-0.3,0.2c-0.7,0.6-1.6,1.1-2.5,1.1c-0.5,0-0.9-0.5-1.3-0.7
		c-0.2-0.1-0.4-0.3-0.6-0.4c-0.1-0.1-0.2-0.1-0.3-0.2c-0.2-0.1-0.5-0.2-0.8-0.4c-0.1-0.1-0.3-0.3-0.3-0.4c-0.1-0.2-0.2-0.5-0.3-0.8
		c-0.1-0.3-0.2-0.6-0.3-0.9c-0.1-0.3-0.1-0.5-0.2-0.8c-0.1-0.4-0.1-0.7-0.1-1.1c0-0.3-0.1-0.6-0.1-0.9c0-0.5,0-0.9,0-1.4
		c0-0.3-0.1-0.6-0.1-1c0-0.3,0-0.6,0-0.9c0,0,0,0,0-0.1c0-0.4,0.1-0.9-0.1-1.3c-0.1-0.1-0.1-0.3-0.1-0.4c0-0.4,0-0.8,0-1.2
		c0-0.5,0-1.1,0-1.6c0-3,0-5.9,0-8.9c0-2.6,2-4.7,4.5-4.7c2.5,0,4.5,2.1,4.5,4.7v19.3c0,2.6-2,4.7-4.5,4.7c-2.5,0-4.5-2.1-4.5-4.7
		c0,0,0-3.3,0-7.1 M165,59.7c-1.7,0-3,1.4-3,3.2v19.3c0,1.7,1.4,3.2,3,3.2c1.7,0,3-1.4,3-3.2V62.8C168.1,61.1,166.7,59.7,165,59.7z"
		/>
</g>
</svg>
