<?xml version="1.0" encoding="UTF-8"?>
<svg xmlns="http://www.w3.org/2000/svg" xmlns:xlink="http://www.w3.org/1999/xlink" width="43px" height="20px" viewBox="0 0 42 20" version="1.1">
<g id="surface1">
<path style=" stroke:none;fill-rule:nonzero;fill:rgb(100%,100%,100%);fill-opacity:1;" d="M 5.023438 1.550781 C 4.691406 1.335938 4.257812 1.480469 4.066406 1.824219 C 3.871094 2.175781 3.980469 2.628906 4.332031 2.804688 L 13.949219 7.753906 C 14.042969 7.804688 14.152344 7.78125 14.203125 7.6875 C 14.25 7.59375 14.21875 7.480469 14.132812 7.429688 Z M 5.023438 1.550781 "/>
<path style=" stroke:none;fill-rule:nonzero;fill:rgb(100%,100%,100%);fill-opacity:1;" d="M 9.71875 8.636719 C 9.835938 8.609375 9.949219 8.667969 9.984375 8.789062 C 10.019531 8.910156 9.949219 9.019531 9.84375 9.070312 L 1.082031 12.199219 C 0.640625 12.351562 0.15625 12.0625 0.03125 11.59375 C -0.09375 11.121094 0.164062 10.609375 0.625 10.515625 Z M 9.71875 8.636719 "/>
<path style=" stroke:none;fill-rule:nonzero;fill:rgb(100%,100%,100%);fill-opacity:1;" d="M 12.773438 8.027344 L 1 8.722656 C 0.523438 8.746094 0.148438 8.328125 0.148438 7.847656 C 0.148438 7.371094 0.53125 6.953125 1 6.976562 L 12.773438 7.585938 C 12.890625 7.585938 12.992188 7.679688 12.992188 7.804688 C 12.992188 7.925781 12.898438 8.019531 12.773438 8.027344 Z M 12.773438 8.027344 "/>
<path style=" stroke:none;fill-rule:nonzero;fill:rgb(100%,100%,100%);fill-opacity:1;" d="M 15.320312 8.175781 C 15.246094 8.214844 15.144531 8.191406 15.09375 8.113281 L 10.300781 0.960938 C 10.101562 0.679688 10.210938 0.277344 10.503906 0.0976562 C 10.785156 -0.0898438 11.1875 0.00390625 11.34375 0.300781 L 15.378906 7.941406 C 15.421875 8.019531 15.394531 8.121094 15.320312 8.175781 Z M 15.320312 8.175781 "/>
<path style=" stroke:none;fill-rule:nonzero;fill:rgb(100%,100%,100%);fill-opacity:1;" d="M 10.988281 7.140625 L 2.226562 5.457031 C 1.761719 5.371094 1.5 4.859375 1.625 4.378906 C 1.742188 3.910156 2.21875 3.59375 2.671875 3.753906 L 11.085938 6.746094 C 11.195312 6.789062 11.253906 6.882812 11.230469 6.996094 C 11.195312 7.105469 11.09375 7.15625 10.988281 7.140625 Z M 10.988281 7.140625 "/>
<path style=" stroke:none;fill-rule:nonzero;fill:rgb(100%,100%,100%);fill-opacity:1;" d="M 13.117188 6.421875 L 7.1875 1.300781 C 6.910156 1.0625 6.921875 0.628906 7.171875 0.363281 C 7.414062 0.0976562 7.839844 0.078125 8.082031 0.34375 L 13.339844 6.175781 C 13.40625 6.242188 13.417969 6.34375 13.347656 6.414062 C 13.292969 6.480469 13.183594 6.480469 13.117188 6.421875 Z M 13.117188 6.421875 "/>
<path style=" stroke:none;fill-rule:nonzero;fill:rgb(100%,100%,100%);fill-opacity:1;" d="M 15.429688 7.164062 C 15.355469 7.191406 15.277344 7.148438 15.253906 7.070312 L 13.25 1.566406 C 13.148438 1.292969 13.324219 0.984375 13.601562 0.902344 C 13.875 0.816406 14.183594 0.96875 14.25 1.257812 L 15.519531 6.984375 C 15.539062 7.0625 15.503906 7.140625 15.429688 7.164062 Z M 15.429688 7.164062 "/>
<path style=" stroke:none;fill-rule:nonzero;fill:rgb(100%,100%,100%);fill-opacity:1;" d="M 17.558594 9.40625 L 18.601562 7.902344 C 18.734375 7.710938 19.027344 7.730469 19.1875 7.902344 C 19.351562 8.0625 19.378906 8.363281 19.195312 8.5 L 17.726562 9.574219 C 17.675781 9.617188 17.609375 9.628906 17.558594 9.574219 C 17.515625 9.523438 17.515625 9.464844 17.558594 9.40625 Z M 17.558594 9.40625 "/>
<path style=" stroke:none;fill-rule:nonzero;fill:rgb(100%,100%,100%);fill-opacity:1;" d="M 15.886719 11.320312 L 18.851562 9.394531 C 19.042969 9.277344 19.3125 9.378906 19.410156 9.585938 C 19.519531 9.789062 19.445312 10.0625 19.234375 10.15625 L 15.996094 11.53125 C 15.9375 11.558594 15.871094 11.542969 15.835938 11.480469 C 15.804688 11.421875 15.828125 11.351562 15.886719 11.320312 Z M 15.886719 11.320312 "/>
<path style=" stroke:none;fill-rule:nonzero;fill:rgb(100%,100%,100%);fill-opacity:1;" d="M 16.941406 7.449219 C 16.914062 7.507812 16.863281 7.550781 16.796875 7.53125 C 16.738281 7.515625 16.707031 7.449219 16.707031 7.386719 L 17.089844 4.542969 C 17.125 4.300781 17.375 4.191406 17.601562 4.25 C 17.824219 4.3125 17.992188 4.542969 17.910156 4.765625 Z M 16.941406 7.449219 "/>
<path style=" stroke:none;fill-rule:nonzero;fill:rgb(100%,100%,100%);fill-opacity:1;" d="M 16.195312 9.097656 C 16.195312 9.164062 16.148438 9.214844 16.078125 9.214844 C 16.011719 9.214844 15.964844 9.164062 15.953125 9.097656 L 15.605469 2.867188 C 15.59375 2.636719 15.796875 2.457031 16.023438 2.457031 C 16.253906 2.457031 16.457031 2.644531 16.449219 2.875 Z M 16.195312 9.097656 "/>
<path style=" stroke:none;fill-rule:nonzero;fill:rgb(100%,100%,100%);fill-opacity:1;" d="M 16.390625 10.40625 C 16.355469 10.464844 16.289062 10.492188 16.230469 10.457031 C 16.179688 10.429688 16.15625 10.351562 16.171875 10.292969 L 18.015625 6.164062 C 18.117188 5.941406 18.375 5.902344 18.578125 6.011719 C 18.777344 6.121094 18.867188 6.386719 18.742188 6.585938 Z M 16.390625 10.40625 "/>
<path style=" stroke:none;fill-rule:nonzero;fill:rgb(100%,100%,100%);fill-opacity:1;" d="M 16.574219 13.113281 L 18.394531 13.300781 C 18.617188 13.328125 18.742188 13.601562 18.683594 13.832031 C 18.625 14.0625 18.382812 14.242188 18.175781 14.140625 L 16.515625 13.351562 C 16.457031 13.320312 16.414062 13.269531 16.429688 13.199219 C 16.449219 13.140625 16.503906 13.105469 16.574219 13.113281 Z M 16.574219 13.113281 "/>
<path style=" stroke:none;fill-rule:nonzero;fill:rgb(100%,100%,100%);fill-opacity:1;" d="M 13.632812 12.5 L 17.859375 14.507812 C 18.09375 14.617188 18.160156 14.917969 18.027344 15.148438 C 17.898438 15.371094 17.617188 15.464844 17.40625 15.328125 L 13.515625 12.710938 C 13.464844 12.679688 13.441406 12.609375 13.476562 12.550781 C 13.507812 12.492188 13.574219 12.472656 13.632812 12.5 Z M 13.632812 12.5 "/>
<path style=" stroke:none;fill-rule:nonzero;fill:rgb(100%,100%,100%);fill-opacity:1;" d="M 12.371094 12.046875 C 12.421875 12.011719 12.496094 12.027344 12.539062 12.089844 L 15.972656 17.019531 C 16.136719 17.25 16.046875 17.585938 15.804688 17.738281 C 15.570312 17.882812 15.238281 17.824219 15.101562 17.566406 L 12.332031 12.214844 C 12.296875 12.15625 12.3125 12.078125 12.371094 12.046875 Z M 12.371094 12.046875 "/>
<path style=" stroke:none;fill-rule:nonzero;fill:rgb(100%,100%,100%);fill-opacity:1;" d="M 11.644531 8.507812 C 11.753906 8.449219 11.886719 8.480469 11.945312 8.585938 C 12.003906 8.695312 11.972656 8.824219 11.863281 8.902344 L 2.460938 15.386719 L 2.453125 15.386719 C 2.058594 15.652344 1.527344 15.5 1.285156 15.078125 C 1.042969 14.667969 1.167969 14.105469 1.585938 13.882812 Z M 11.644531 8.507812 "/>
<path style=" stroke:none;fill-rule:nonzero;fill:rgb(100%,100%,100%);fill-opacity:1;" d="M 17.300781 11.457031 L 18.9375 10.816406 C 19.128906 10.746094 19.328125 10.902344 19.378906 11.097656 C 19.421875 11.300781 19.304688 11.53125 19.101562 11.550781 L 17.347656 11.695312 C 17.28125 11.695312 17.222656 11.667969 17.207031 11.601562 C 17.199219 11.53125 17.242188 11.480469 17.300781 11.457031 Z M 17.300781 11.457031 "/>
<path style=" stroke:none;fill-rule:nonzero;fill:rgb(100%,100%,100%);fill-opacity:1;" d="M 14.871094 12.285156 L 18.734375 11.996094 C 18.960938 11.976562 19.144531 12.183594 19.144531 12.421875 C 19.144531 12.660156 18.953125 12.867188 18.726562 12.847656 L 14.871094 12.523438 C 14.800781 12.523438 14.753906 12.472656 14.753906 12.40625 C 14.753906 12.335938 14.800781 12.292969 14.871094 12.285156 Z M 14.871094 12.285156 "/>
<path style=" stroke:none;fill-rule:nonzero;fill:rgb(100%,100%,100%);fill-opacity:1;" d="M 14.433594 13.765625 L 17.074219 15.738281 C 17.300781 15.902344 17.28125 16.25 17.097656 16.464844 C 16.914062 16.667969 16.5625 16.703125 16.390625 16.492188 L 14.277344 13.941406 C 14.234375 13.890625 14.226562 13.824219 14.269531 13.773438 C 14.308594 13.722656 14.386719 13.722656 14.433594 13.765625 Z M 14.433594 13.765625 "/>
<path style=" stroke:none;fill-rule:nonzero;fill:rgb(100%,100%,100%);fill-opacity:1;" d="M 9.84375 10.804688 C 9.910156 10.746094 10.019531 10.738281 10.085938 10.804688 C 10.152344 10.875 10.144531 10.976562 10.085938 11.054688 L 4.617188 17.6875 C 4.347656 18.003906 3.855469 17.996094 3.5625 17.703125 C 3.269531 17.414062 3.246094 16.910156 3.546875 16.628906 Z M 9.84375 10.804688 "/>
<path style=" stroke:none;fill-rule:nonzero;fill:rgb(100%,100%,100%);fill-opacity:1;" d="M 11.238281 9.941406 C 11.289062 9.867188 11.386719 9.832031 11.472656 9.875 C 11.554688 9.925781 11.578125 10.027344 11.539062 10.113281 L 7.421875 19.054688 C 7.246094 19.429688 6.769531 19.558594 6.410156 19.351562 C 6.050781 19.148438 5.902344 18.679688 6.117188 18.320312 Z M 11.238281 9.941406 "/>
<path style=" stroke:none;fill-rule:nonzero;fill:rgb(100%,100%,100%);fill-opacity:1;" d="M 11.644531 11.070312 C 11.722656 11.0625 11.78125 11.121094 11.789062 11.199219 L 12.632812 19.027344 C 12.664062 19.34375 12.40625 19.617188 12.097656 19.636719 C 11.789062 19.652344 11.503906 19.414062 11.503906 19.089844 L 11.519531 11.214844 C 11.519531 11.140625 11.570312 11.070312 11.644531 11.070312 Z M 11.644531 11.070312 "/>
<path style=" stroke:none;fill-rule:nonzero;fill:rgb(100%,100%,100%);fill-opacity:1;" d="M 12.457031 13.558594 C 12.523438 13.53125 12.589844 13.566406 12.613281 13.636719 L 14.476562 18.175781 C 14.585938 18.4375 14.417969 18.738281 14.152344 18.832031 C 13.882812 18.925781 13.574219 18.78125 13.507812 18.5 L 12.382812 13.722656 C 12.363281 13.652344 12.390625 13.585938 12.457031 13.558594 Z M 12.457031 13.558594 "/>
<path style=" stroke:none;fill-rule:nonzero;fill:rgb(100%,100%,100%);fill-opacity:1;" d="M 10.84375 12.429688 C 10.871094 12.34375 10.945312 12.292969 11.027344 12.3125 C 11.113281 12.328125 11.160156 12.40625 11.144531 12.492188 L 10.21875 19.429688 C 10.175781 19.78125 9.816406 19.996094 9.484375 19.925781 C 9.148438 19.859375 8.90625 19.515625 9 19.175781 Z M 10.84375 12.429688 "/>
<path style=" stroke:none;fill-rule:nonzero;fill:rgb(100%,100%,100%);fill-opacity:1;" d="M 35.675781 12.710938 C 35.617188 12.523438 35.570312 12.472656 35.425781 12.472656 L 33.53125 12.472656 C 33.355469 12.472656 33.214844 12.636719 33.230469 12.816406 C 33.488281 14.703125 35.101562 16.472656 37.804688 16.472656 C 40.320312 16.472656 41.964844 14.910156 41.964844 12.832031 C 41.964844 10.933594 40.8125 9.6875 38.867188 9.121094 L 37.472656 8.722656 C 36.480469 8.4375 35.96875 8.019531 35.96875 7.257812 C 35.96875 6.542969 36.652344 6.121094 37.523438 6.121094 C 38.171875 6.121094 38.882812 6.429688 39.21875 7.335938 C 39.269531 7.480469 39.34375 7.53125 39.5 7.53125 L 41.371094 7.53125 C 41.5625 7.53125 41.6875 7.371094 41.671875 7.191406 C 41.421875 5.457031 39.917969 3.804688 37.515625 3.804688 C 35.109375 3.804688 33.496094 5.15625 33.496094 7.421875 C 33.496094 9.292969 34.734375 10.5 36.628906 11.0625 L 37.898438 11.4375 C 39.035156 11.789062 39.492188 12.257812 39.492188 12.925781 C 39.492188 13.6875 38.765625 14.15625 37.796875 14.15625 C 36.8125 14.15625 35.960938 13.652344 35.675781 12.710938 Z M 35.675781 12.710938 "/>
<path style=" stroke:none;fill-rule:nonzero;fill:rgb(100%,100%,100%);fill-opacity:1;" d="M 32.578125 4.011719 L 25.898438 4.011719 C 25.722656 4.011719 25.597656 4.15625 25.597656 4.320312 L 25.597656 15.960938 C 25.597656 16.121094 25.722656 16.269531 25.898438 16.269531 L 27.738281 16.269531 C 27.894531 16.269531 28.035156 16.121094 28.035156 15.960938 L 28.035156 11.3125 L 31.519531 11.3125 C 31.695312 11.3125 31.820312 11.164062 31.820312 11.003906 L 31.820312 9.234375 C 31.820312 9.070312 31.695312 8.925781 31.519531 8.925781 L 28.035156 8.925781 L 28.035156 6.394531 L 32.578125 6.394531 C 32.738281 6.394531 32.878906 6.25 32.878906 6.089844 L 32.878906 4.320312 C 32.878906 4.15625 32.738281 4.011719 32.578125 4.011719 Z M 32.578125 4.011719 "/>
<path style=" stroke:none;fill-rule:nonzero;fill:rgb(100%,100%,100%);fill-opacity:1;" d="M 24.039062 4.011719 L 22.199219 4.011719 C 22.023438 4.011719 21.898438 4.15625 21.898438 4.320312 L 21.898438 15.96875 C 21.898438 16.132812 22.023438 16.277344 22.199219 16.277344 L 24.039062 16.277344 C 24.195312 16.277344 24.339844 16.132812 24.339844 15.96875 L 24.339844 4.320312 C 24.339844 4.15625 24.195312 4.011719 24.039062 4.011719 Z M 24.039062 4.011719 "/>
</g>
</svg>
